<svg width="18" height="16" viewBox="0 0 18 16" fill="none" xmlns="http://www.w3.org/2000/svg">
<path d="M16.5 6.74999H15.6667V5.91666C15.6667 5.69564 15.5789 5.48368 15.4226 5.3274C15.2663 5.17112 15.0544 5.08332 14.8334 5.08332C14.6123 5.08332 14.4004 5.17112 14.2441 5.3274C14.0878 5.48368 14 5.69564 14 5.91666V6.74999H13.1667C12.9457 6.74999 12.7337 6.83779 12.5774 6.99407C12.4212 7.15035 12.3334 7.36231 12.3334 7.58332C12.3334 7.80434 12.4212 8.0163 12.5774 8.17258C12.7337 8.32886 12.9457 8.41666 13.1667 8.41666H14V9.24999C14 9.471 14.0878 9.68297 14.2441 9.83925C14.4004 9.99553 14.6123 10.0833 14.8334 10.0833C15.0544 10.0833 15.2663 9.99553 15.4226 9.83925C15.5789 9.68297 15.6667 9.471 15.6667 9.24999V8.41666H16.5C16.721 8.41666 16.933 8.32886 17.0893 8.17258C17.2456 8.0163 17.3334 7.80434 17.3334 7.58332C17.3334 7.36231 17.2456 7.15035 17.0893 6.99407C16.933 6.83779 16.721 6.74999 16.5 6.74999ZM10.0834 8.18332C10.528 7.79843 10.8846 7.32239 11.1291 6.78751C11.3735 6.25262 11.5 5.67141 11.5 5.08332C11.5 3.97825 11.061 2.91845 10.2796 2.13704C9.49823 1.35564 8.43842 0.916656 7.33335 0.916656C6.22829 0.916656 5.16848 1.35564 4.38708 2.13704C3.60567 2.91845 3.16669 3.97825 3.16669 5.08332C3.16668 5.67141 3.29319 6.25262 3.53763 6.78751C3.78206 7.32239 4.13871 7.79843 4.58335 8.18332C3.4168 8.71156 2.42707 9.5646 1.7325 10.6404C1.03793 11.7163 0.667914 12.9694 0.666687 14.25C0.666687 14.471 0.754484 14.683 0.910765 14.8392C1.06704 14.9955 1.27901 15.0833 1.50002 15.0833C1.72103 15.0833 1.933 14.9955 2.08928 14.8392C2.24556 14.683 2.33335 14.471 2.33335 14.25C2.33335 12.9239 2.86014 11.6521 3.79782 10.7145C4.7355 9.77677 6.00727 9.24999 7.33335 9.24999C8.65944 9.24999 9.93121 9.77677 10.8689 10.7145C11.8066 11.6521 12.3334 12.9239 12.3334 14.25C12.3334 14.471 12.4212 14.683 12.5774 14.8392C12.7337 14.9955 12.9457 15.0833 13.1667 15.0833C13.3877 15.0833 13.5997 14.9955 13.7559 14.8392C13.9122 14.683 14 14.471 14 14.25C13.9988 12.9694 13.6288 11.7163 12.9342 10.6404C12.2396 9.5646 11.2499 8.71156 10.0834 8.18332ZM7.33335 7.58332C6.8389 7.58332 6.35555 7.4367 5.94443 7.162C5.53331 6.88729 5.21287 6.49685 5.02366 6.04003C4.83444 5.58322 4.78493 5.08055 4.88139 4.5956C4.97785 4.11065 5.21596 3.66519 5.56559 3.31556C5.91522 2.96593 6.36068 2.72782 6.84563 2.63136C7.33058 2.5349 7.83325 2.58441 8.29006 2.77362C8.74688 2.96284 9.13732 3.28327 9.41203 3.6944C9.68673 4.10552 9.83335 4.58887 9.83335 5.08332C9.83335 5.74636 9.56996 6.38225 9.10112 6.85109C8.63228 7.31993 7.9964 7.58332 7.33335 7.58332Z" fill="white"/>
</svg>
