<svg width="18" height="16" viewBox="0 0 18 16" fill="none" xmlns="http://www.w3.org/2000/svg">
<path d="M16.5 6.75001H15.6667V5.91667C15.6667 5.69566 15.5789 5.4837 15.4226 5.32742C15.2663 5.17114 15.0544 5.08334 14.8334 5.08334C14.6123 5.08334 14.4004 5.17114 14.2441 5.32742C14.0878 5.4837 14 5.69566 14 5.91667V6.75001H13.1667C12.9457 6.75001 12.7337 6.8378 12.5774 6.99408C12.4212 7.15036 12.3334 7.36233 12.3334 7.58334C12.3334 7.80435 12.4212 8.01631 12.5774 8.17259C12.7337 8.32887 12.9457 8.41667 13.1667 8.41667H14V9.25001C14 9.47102 14.0878 9.68298 14.2441 9.83926C14.4004 9.99554 14.6123 10.0833 14.8334 10.0833C15.0544 10.0833 15.2663 9.99554 15.4226 9.83926C15.5789 9.68298 15.6667 9.47102 15.6667 9.25001V8.41667H16.5C16.721 8.41667 16.933 8.32887 17.0893 8.17259C17.2456 8.01631 17.3334 7.80435 17.3334 7.58334C17.3334 7.36233 17.2456 7.15036 17.0893 6.99408C16.933 6.8378 16.721 6.75001 16.5 6.75001ZM10.0834 8.18334C10.528 7.79845 10.8846 7.32241 11.1291 6.78752C11.3735 6.25264 11.5 5.67143 11.5 5.08334C11.5 3.97827 11.061 2.91846 10.2796 2.13706C9.49823 1.35566 8.43842 0.916672 7.33335 0.916672C6.22829 0.916672 5.16848 1.35566 4.38708 2.13706C3.60567 2.91846 3.16669 3.97827 3.16669 5.08334C3.16668 5.67143 3.29319 6.25264 3.53763 6.78752C3.78206 7.32241 4.13871 7.79845 4.58335 8.18334C3.4168 8.71158 2.42707 9.56461 1.7325 10.6405C1.03793 11.7163 0.667914 12.9694 0.666687 14.25C0.666687 14.471 0.754484 14.683 0.910765 14.8393C1.06704 14.9955 1.27901 15.0833 1.50002 15.0833C1.72103 15.0833 1.933 14.9955 2.08928 14.8393C2.24556 14.683 2.33335 14.471 2.33335 14.25C2.33335 12.9239 2.86014 11.6522 3.79782 10.7145C4.7355 9.77679 6.00727 9.25001 7.33335 9.25001C8.65944 9.25001 9.93121 9.77679 10.8689 10.7145C11.8066 11.6522 12.3334 12.9239 12.3334 14.25C12.3334 14.471 12.4212 14.683 12.5774 14.8393C12.7337 14.9955 12.9457 15.0833 13.1667 15.0833C13.3877 15.0833 13.5997 14.9955 13.7559 14.8393C13.9122 14.683 14 14.471 14 14.25C13.9988 12.9694 13.6288 11.7163 12.9342 10.6405C12.2396 9.56461 11.2499 8.71158 10.0834 8.18334ZM7.33335 7.58334C6.8389 7.58334 6.35555 7.43672 5.94443 7.16201C5.53331 6.88731 5.21287 6.49686 5.02366 6.04005C4.83444 5.58323 4.78493 5.08057 4.88139 4.59561C4.97785 4.11066 5.21596 3.6652 5.56559 3.31557C5.91522 2.96594 6.36068 2.72784 6.84563 2.63138C7.33058 2.53491 7.83325 2.58442 8.29006 2.77364C8.74688 2.96286 9.13732 3.28329 9.41203 3.69441C9.68673 4.10554 9.83335 4.58889 9.83335 5.08334C9.83335 5.74638 9.56996 6.38227 9.10112 6.85111C8.63228 7.31995 7.9964 7.58334 7.33335 7.58334Z" fill="#535260"/>
</svg>
