<svg width="18" height="18" viewBox="0 0 18 18" fill="none" xmlns="http://www.w3.org/2000/svg">
<path d="M10.6667 5.66663H11.5C11.721 5.66663 11.933 5.57883 12.0893 5.42255C12.2456 5.26627 12.3334 5.05431 12.3334 4.83329C12.3334 4.61228 12.2456 4.40032 12.0893 4.24404C11.933 4.08776 11.721 3.99996 11.5 3.99996H10.6667C10.4457 3.99996 10.2337 4.08776 10.0774 4.24404C9.92115 4.40032 9.83335 4.61228 9.83335 4.83329C9.83335 5.05431 9.92115 5.26627 10.0774 5.42255C10.2337 5.57883 10.4457 5.66663 10.6667 5.66663ZM10.6667 8.99996H11.5C11.721 8.99996 11.933 8.91216 12.0893 8.75588C12.2456 8.5996 12.3334 8.38764 12.3334 8.16663C12.3334 7.94561 12.2456 7.73365 12.0893 7.57737C11.933 7.42109 11.721 7.33329 11.5 7.33329H10.6667C10.4457 7.33329 10.2337 7.42109 10.0774 7.57737C9.92115 7.73365 9.83335 7.94561 9.83335 8.16663C9.83335 8.38764 9.92115 8.5996 10.0774 8.75588C10.2337 8.91216 10.4457 8.99996 10.6667 8.99996ZM6.50002 5.66663H7.33335C7.55437 5.66663 7.76633 5.57883 7.92261 5.42255C8.07889 5.26627 8.16669 5.05431 8.16669 4.83329C8.16669 4.61228 8.07889 4.40032 7.92261 4.24404C7.76633 4.08776 7.55437 3.99996 7.33335 3.99996H6.50002C6.27901 3.99996 6.06705 4.08776 5.91077 4.24404C5.75448 4.40032 5.66669 4.61228 5.66669 4.83329C5.66669 5.05431 5.75448 5.26627 5.91077 5.42255C6.06705 5.57883 6.27901 5.66663 6.50002 5.66663ZM6.50002 8.99996H7.33335C7.55437 8.99996 7.76633 8.91216 7.92261 8.75588C8.07889 8.5996 8.16669 8.38764 8.16669 8.16663C8.16669 7.94561 8.07889 7.73365 7.92261 7.57737C7.76633 7.42109 7.55437 7.33329 7.33335 7.33329H6.50002C6.27901 7.33329 6.06705 7.42109 5.91077 7.57737C5.75448 7.73365 5.66669 7.94561 5.66669 8.16663C5.66669 8.38764 5.75448 8.5996 5.91077 8.75588C6.06705 8.91216 6.27901 8.99996 6.50002 8.99996ZM16.5 15.6666H15.6667V1.49996C15.6667 1.27895 15.5789 1.06698 15.4226 0.910704C15.2663 0.754423 15.0544 0.666626 14.8334 0.666626H3.16669C2.94567 0.666626 2.73371 0.754423 2.57743 0.910704C2.42115 1.06698 2.33335 1.27895 2.33335 1.49996V15.6666H1.50002C1.27901 15.6666 1.06704 15.7544 0.910765 15.9107C0.754484 16.067 0.666687 16.2789 0.666687 16.5C0.666687 16.721 0.754484 16.9329 0.910765 17.0892C1.06704 17.2455 1.27901 17.3333 1.50002 17.3333H16.5C16.721 17.3333 16.933 17.2455 17.0893 17.0892C17.2456 16.9329 17.3334 16.721 17.3334 16.5C17.3334 16.2789 17.2456 16.067 17.0893 15.9107C16.933 15.7544 16.721 15.6666 16.5 15.6666ZM9.83335 15.6666H8.16669V12.3333H9.83335V15.6666ZM14 15.6666H11.5V11.5C11.5 11.2789 11.4122 11.067 11.2559 10.9107C11.0997 10.7544 10.8877 10.6666 10.6667 10.6666H7.33335C7.11234 10.6666 6.90038 10.7544 6.7441 10.9107C6.58782 11.067 6.50002 11.2789 6.50002 11.5V15.6666H4.00002V2.33329H14V15.6666Z" fill="white"/>
</svg>
