<svg width="14" height="15" viewBox="0 0 14 15" fill="none" xmlns="http://www.w3.org/2000/svg">
<path d="M8.81326 5.36L5.95326 8.22667L4.85325 7.12667C4.79349 7.05688 4.71994 7.0002 4.63723 6.96018C4.55452 6.92017 4.46444 6.89768 4.37262 6.89413C4.28081 6.89059 4.18926 6.90606 4.10371 6.93958C4.01816 6.97309 3.94046 7.02393 3.87549 7.0889C3.81052 7.15387 3.75968 7.23157 3.72616 7.31712C3.69265 7.40267 3.67718 7.49422 3.68072 7.58604C3.68427 7.67785 3.70676 7.76794 3.74677 7.85065C3.78679 7.93336 3.84347 8.0069 3.91325 8.06667L5.47992 9.64C5.54222 9.70179 5.61609 9.75067 5.69732 9.78385C5.77854 9.81702 5.86552 9.83384 5.95326 9.83333C6.12815 9.8326 6.29575 9.76316 6.41992 9.64L9.75325 6.30667C9.81574 6.24469 9.86534 6.17096 9.89918 6.08972C9.93303 6.00848 9.95045 5.92134 9.95045 5.83333C9.95045 5.74533 9.93303 5.65819 9.89918 5.57695C9.86534 5.49571 9.81574 5.42198 9.75325 5.36C9.62835 5.23583 9.45938 5.16614 9.28326 5.16614C9.10713 5.16614 8.93816 5.23583 8.81326 5.36ZM6.99992 0.833333C5.68138 0.833333 4.39245 1.22433 3.29612 1.95687C2.19979 2.68941 1.34531 3.7306 0.840725 4.94878C0.336141 6.16695 0.204118 7.5074 0.461353 8.8006C0.718588 10.0938 1.35353 11.2817 2.28588 12.214C3.21823 13.1464 4.40611 13.7813 5.69932 14.0386C6.99253 14.2958 8.33297 14.1638 9.55115 13.6592C10.7693 13.1546 11.8105 12.3001 12.5431 11.2038C13.2756 10.1075 13.6666 8.81854 13.6666 7.5C13.6666 6.62452 13.4942 5.75761 13.1591 4.94878C12.8241 4.13994 12.333 3.40501 11.714 2.78595C11.0949 2.1669 10.36 1.67583 9.55115 1.3408C8.74231 1.00577 7.8754 0.833333 6.99992 0.833333ZM6.99992 12.8333C5.94509 12.8333 4.91394 12.5205 4.03688 11.9345C3.15982 11.3485 2.47623 10.5155 2.07256 9.54098C1.6689 8.56644 1.56328 7.49408 1.76907 6.45952C1.97485 5.42495 2.48281 4.47464 3.22869 3.72876C3.97457 2.98288 4.92487 2.47493 5.95944 2.26915C6.99401 2.06336 8.06636 2.16898 9.0409 2.57264C10.0154 2.97631 10.8484 3.6599 11.4344 4.53696C12.0205 5.41402 12.3333 6.44517 12.3333 7.5C12.3333 8.91449 11.7714 10.271 10.7712 11.2712C9.77096 12.2714 8.41441 12.8333 6.99992 12.8333Z" fill="#2196F3"/>
</svg>
