<svg width="20" height="20" viewBox="0 0 20 20" fill="none" xmlns="http://www.w3.org/2000/svg">
<g opacity="0.5">
<path d="M15 10.9833V8.33332C14.9988 7.15259 14.5798 6.01038 13.8172 5.10897C13.0546 4.20756 11.9976 3.60511 10.8334 3.40832V2.49999C10.8334 2.27898 10.7456 2.06701 10.5893 1.91073C10.433 1.75445 10.2211 1.66666 10 1.66666C9.77903 1.66666 9.56707 1.75445 9.41079 1.91073C9.2545 2.06701 9.16671 2.27898 9.16671 2.49999V3.40832C8.00249 3.60511 6.94548 4.20756 6.18286 5.10897C5.42025 6.01038 5.00124 7.15259 5.00004 8.33332V10.9833C4.51375 11.1553 4.09254 11.4734 3.79416 11.8941C3.49577 12.3148 3.33482 12.8175 3.33337 13.3333V15C3.33337 15.221 3.42117 15.433 3.57745 15.5892C3.73373 15.7455 3.94569 15.8333 4.16671 15.8333H6.78337C6.97528 16.5395 7.39421 17.1628 7.97554 17.6073C8.55687 18.0517 9.26829 18.2925 10 18.2925C10.7318 18.2925 11.4432 18.0517 12.0245 17.6073C12.6059 17.1628 13.0248 16.5395 13.2167 15.8333H15.8334C16.0544 15.8333 16.2663 15.7455 16.4226 15.5892C16.5789 15.433 16.6667 15.221 16.6667 15V13.3333C16.6653 12.8175 16.5043 12.3148 16.2059 11.8941C15.9075 11.4734 15.4863 11.1553 15 10.9833ZM6.66671 8.33332C6.66671 7.44927 7.0179 6.60142 7.64302 5.9763C8.26814 5.35118 9.11599 4.99999 10 4.99999C10.8841 4.99999 11.7319 5.35118 12.3571 5.9763C12.9822 6.60142 13.3334 7.44927 13.3334 8.33332V10.8333H6.66671V8.33332ZM10 16.6667C9.70918 16.6649 9.42385 16.5871 9.1724 16.4409C8.92095 16.2947 8.71213 16.0852 8.56671 15.8333H11.4334C11.2879 16.0852 11.0791 16.2947 10.8277 16.4409C10.5762 16.5871 10.2909 16.6649 10 16.6667ZM15 14.1667H5.00004V13.3333C5.00004 13.1123 5.08784 12.9003 5.24412 12.7441C5.4004 12.5878 5.61236 12.5 5.83337 12.5H14.1667C14.3877 12.5 14.5997 12.5878 14.756 12.7441C14.9122 12.9003 15 13.1123 15 13.3333V14.1667Z" fill="white"/>
</g>
</svg>
