<svg width="5" height="7" viewBox="0 0 5 7" fill="none" xmlns="http://www.w3.org/2000/svg">
<path d="M4.26874 3.05625L1.61874 0.406248C1.56064 0.347668 1.49152 0.301172 1.41536 0.269441C1.33919 0.237711 1.2575 0.221375 1.17499 0.221375C1.09249 0.221375 1.0108 0.237711 0.934634 0.269441C0.858472 0.301172 0.789347 0.347668 0.731245 0.406248C0.614838 0.52335 0.5495 0.681757 0.5495 0.846873C0.5495 1.01199 0.614838 1.1704 0.731245 1.2875L2.94374 3.5L0.731245 5.7125C0.614838 5.8296 0.5495 5.98801 0.5495 6.15312C0.5495 6.31824 0.614838 6.47665 0.731245 6.59375C0.789645 6.65167 0.858905 6.6975 0.935053 6.72861C1.0112 6.75971 1.09274 6.77547 1.17499 6.775C1.25725 6.77547 1.33879 6.75971 1.41494 6.72861C1.49108 6.6975 1.56034 6.65167 1.61874 6.59375L4.26874 3.94375C4.32732 3.88565 4.37382 3.81652 4.40555 3.74036C4.43728 3.6642 4.45362 3.58251 4.45362 3.5C4.45362 3.41749 4.43728 3.3358 4.40555 3.25964C4.37382 3.18348 4.32732 3.11435 4.26874 3.05625Z" fill="#C5C4CF"/>
</svg>
