<svg width="20" height="21" viewBox="0 0 20 21" fill="none" xmlns="http://www.w3.org/2000/svg">
<g opacity="0.5">
<path d="M11.6667 7.16667H12.5001C12.7211 7.16667 12.9331 7.07887 13.0893 6.92259C13.2456 6.76631 13.3334 6.55435 13.3334 6.33334C13.3334 6.11232 13.2456 5.90036 13.0893 5.74408C12.9331 5.5878 12.7211 5.50001 12.5001 5.50001H11.6667C11.4457 5.50001 11.2338 5.5878 11.0775 5.74408C10.9212 5.90036 10.8334 6.11232 10.8334 6.33334C10.8334 6.55435 10.9212 6.76631 11.0775 6.92259C11.2338 7.07887 11.4457 7.16667 11.6667 7.16667ZM11.6667 10.5H12.5001C12.7211 10.5 12.9331 10.4122 13.0893 10.2559C13.2456 10.0996 13.3334 9.88769 13.3334 9.66667C13.3334 9.44566 13.2456 9.2337 13.0893 9.07742C12.9331 8.92114 12.7211 8.83334 12.5001 8.83334H11.6667C11.4457 8.83334 11.2338 8.92114 11.0775 9.07742C10.9212 9.2337 10.8334 9.44566 10.8334 9.66667C10.8334 9.88769 10.9212 10.0996 11.0775 10.2559C11.2338 10.4122 11.4457 10.5 11.6667 10.5ZM7.50008 7.16667H8.33342C8.55443 7.16667 8.76639 7.07887 8.92267 6.92259C9.07895 6.76631 9.16675 6.55435 9.16675 6.33334C9.16675 6.11232 9.07895 5.90036 8.92267 5.74408C8.76639 5.5878 8.55443 5.50001 8.33342 5.50001H7.50008C7.27907 5.50001 7.06711 5.5878 6.91083 5.74408C6.75455 5.90036 6.66675 6.11232 6.66675 6.33334C6.66675 6.55435 6.75455 6.76631 6.91083 6.92259C7.06711 7.07887 7.27907 7.16667 7.50008 7.16667ZM7.50008 10.5H8.33342C8.55443 10.5 8.76639 10.4122 8.92267 10.2559C9.07895 10.0996 9.16675 9.88769 9.16675 9.66667C9.16675 9.44566 9.07895 9.2337 8.92267 9.07742C8.76639 8.92114 8.55443 8.83334 8.33342 8.83334H7.50008C7.27907 8.83334 7.06711 8.92114 6.91083 9.07742C6.75455 9.2337 6.66675 9.44566 6.66675 9.66667C6.66675 9.88769 6.75455 10.0996 6.91083 10.2559C7.06711 10.4122 7.27907 10.5 7.50008 10.5ZM17.5001 17.1667H16.6667V3.00001C16.6667 2.77899 16.579 2.56703 16.4227 2.41075C16.2664 2.25447 16.0544 2.16667 15.8334 2.16667H4.16675C3.94573 2.16667 3.73377 2.25447 3.57749 2.41075C3.42121 2.56703 3.33341 2.77899 3.33341 3.00001V17.1667H2.50008C2.27907 17.1667 2.06711 17.2545 1.91083 17.4107C1.75455 17.567 1.66675 17.779 1.66675 18C1.66675 18.221 1.75455 18.433 1.91083 18.5893C2.06711 18.7455 2.27907 18.8333 2.50008 18.8333H17.5001C17.7211 18.8333 17.9331 18.7455 18.0893 18.5893C18.2456 18.433 18.3334 18.221 18.3334 18C18.3334 17.779 18.2456 17.567 18.0893 17.4107C17.9331 17.2545 17.7211 17.1667 17.5001 17.1667ZM10.8334 17.1667H9.16675V13.8333H10.8334V17.1667ZM15.0001 17.1667H12.5001V13C12.5001 12.779 12.4123 12.567 12.256 12.4108C12.0997 12.2545 11.8878 12.1667 11.6667 12.1667H8.33342C8.1124 12.1667 7.90044 12.2545 7.74416 12.4108C7.58788 12.567 7.50008 12.779 7.50008 13V17.1667H5.00008V3.83334H15.0001V17.1667Z" fill="white"/>
</g>
</svg>
