<svg width="20" height="15" viewBox="0 0 20 15" fill="none" xmlns="http://www.w3.org/2000/svg">
<path d="M10.2499 7.68334C10.6946 7.29845 11.0512 6.82241 11.2956 6.28752C11.5401 5.75264 11.6666 5.17143 11.6666 4.58334C11.6666 3.47827 11.2276 2.41846 10.4462 1.63706C9.66479 0.855659 8.60499 0.416672 7.49992 0.416672C6.39485 0.416672 5.33504 0.855659 4.55364 1.63706C3.77224 2.41846 3.33325 3.47827 3.33325 4.58334C3.33325 5.17143 3.45975 5.75264 3.70419 6.28752C3.94863 6.82241 4.30527 7.29845 4.74992 7.68334C3.58337 8.21158 2.59364 9.06461 1.89907 10.1405C1.2045 11.2163 0.834478 12.4694 0.833252 13.75C0.833252 13.971 0.921049 14.183 1.07733 14.3393C1.23361 14.4955 1.44557 14.5833 1.66659 14.5833C1.8876 14.5833 2.09956 14.4955 2.25584 14.3393C2.41212 14.183 2.49992 13.971 2.49992 13.75C2.49992 12.4239 3.0267 11.1522 3.96438 10.2145C4.90207 9.27679 6.17384 8.75001 7.49992 8.75001C8.826 8.75001 10.0978 9.27679 11.0355 10.2145C11.9731 11.1522 12.4999 12.4239 12.4999 13.75C12.4999 13.971 12.5877 14.183 12.744 14.3393C12.9003 14.4955 13.1122 14.5833 13.3333 14.5833C13.5543 14.5833 13.7662 14.4955 13.9225 14.3393C14.0788 14.183 14.1666 13.971 14.1666 13.75C14.1654 12.4694 13.7953 11.2163 13.1008 10.1405C12.4062 9.06461 11.4165 8.21158 10.2499 7.68334ZM7.49992 7.08334C7.00547 7.08334 6.52212 6.93672 6.11099 6.66201C5.69987 6.38731 5.37944 5.99686 5.19022 5.54005C5.001 5.08323 4.95149 4.58057 5.04796 4.09561C5.14442 3.61066 5.38252 3.1652 5.73215 2.81557C6.08178 2.46594 6.52724 2.22784 7.01219 2.13138C7.49715 2.03491 7.99981 2.08442 8.45663 2.27364C8.91344 2.46286 9.30389 2.78329 9.57859 3.19441C9.8533 3.60554 9.99992 4.08889 9.99992 4.58334C9.99992 5.24638 9.73653 5.88227 9.26769 6.35111C8.79884 6.81995 8.16296 7.08334 7.49992 7.08334ZM15.6166 7.35001C16.1499 6.74945 16.4983 6.00755 16.6198 5.21362C16.7412 4.41969 16.6307 3.60757 16.3014 2.87501C15.9721 2.14244 15.4381 1.52067 14.7636 1.08452C14.0892 0.64838 13.3031 0.416457 12.4999 0.416672C12.2789 0.416672 12.0669 0.504469 11.9107 0.66075C11.7544 0.81703 11.6666 1.02899 11.6666 1.25001C11.6666 1.47102 11.7544 1.68298 11.9107 1.83926C12.0669 1.99554 12.2789 2.08334 12.4999 2.08334C13.163 2.08334 13.7988 2.34673 14.2677 2.81557C14.7365 3.28441 14.9999 3.9203 14.9999 4.58334C14.9987 5.02104 14.8827 5.45076 14.6633 5.82952C14.4439 6.20829 14.129 6.52282 13.7499 6.74167C13.6264 6.81294 13.5232 6.91473 13.4502 7.03729C13.3773 7.15985 13.337 7.29909 13.3333 7.44167C13.3298 7.58314 13.3624 7.72317 13.428 7.84855C13.4936 7.97394 13.59 8.08055 13.7083 8.15834L14.0333 8.37501L14.1416 8.43334C15.1461 8.90977 15.9935 9.66333 16.5841 10.6053C17.1746 11.5472 17.4837 12.6383 17.4749 13.75C17.4749 13.971 17.5627 14.183 17.719 14.3393C17.8753 14.4955 18.0872 14.5833 18.3083 14.5833C18.5293 14.5833 18.7412 14.4955 18.8975 14.3393C19.0538 14.183 19.1416 13.971 19.1416 13.75C19.1484 12.4712 18.8281 11.2119 18.2111 10.0917C17.5942 8.97156 16.701 8.02777 15.6166 7.35001Z" fill="white"/>
</svg>
