<svg width="14" height="15" viewBox="0 0 14 15" fill="none" xmlns="http://www.w3.org/2000/svg">
<path d="M11.6666 0.833333H2.33325C1.80282 0.833333 1.29411 1.04405 0.919038 1.41912C0.543966 1.79419 0.333252 2.3029 0.333252 2.83333V9.5C0.333252 10.0304 0.543966 10.5391 0.919038 10.9142C1.29411 11.2893 1.80282 11.5 2.33325 11.5H10.0599L12.5266 13.9733C12.5889 14.0351 12.6628 14.084 12.744 14.1172C12.8252 14.1504 12.9122 14.1672 12.9999 14.1667C13.0874 14.1689 13.1741 14.1507 13.2533 14.1133C13.375 14.0633 13.4792 13.9784 13.5528 13.8692C13.6263 13.7601 13.6659 13.6316 13.6666 13.5V2.83333C13.6666 2.3029 13.4559 1.79419 13.0808 1.41912C12.7057 1.04405 12.197 0.833333 11.6666 0.833333ZM12.3333 11.8933L10.8066 10.36C10.7443 10.2982 10.6704 10.2493 10.5892 10.2162C10.508 10.183 10.421 10.1662 10.3333 10.1667H2.33325C2.15644 10.1667 1.98687 10.0964 1.86185 9.9714C1.73682 9.84638 1.66659 9.67681 1.66659 9.5V2.83333C1.66659 2.65652 1.73682 2.48695 1.86185 2.36193C1.98687 2.2369 2.15644 2.16667 2.33325 2.16667H11.6666C11.8434 2.16667 12.013 2.2369 12.138 2.36193C12.263 2.48695 12.3333 2.65652 12.3333 2.83333V11.8933Z" fill="#2196F3"/>
</svg>
