<svg width="15" height="18" viewBox="0 0 15 18" fill="none" xmlns="http://www.w3.org/2000/svg">
<path d="M13.0667 9.35L7.91672 14.5083C7.24156 15.1083 6.36267 15.4277 5.45982 15.4011C4.55697 15.3746 3.69839 15.004 3.0597 14.3654C2.42101 13.7267 2.05048 12.8681 2.0239 11.9652C1.99732 11.0624 2.3167 10.1835 2.91672 9.50833L9.58338 2.84166C9.98141 2.46358 10.5094 2.25277 11.0584 2.25277C11.6074 2.25277 12.1354 2.46358 12.5334 2.84166C12.9212 3.23465 13.1386 3.76455 13.1386 4.31666C13.1386 4.86877 12.9212 5.39867 12.5334 5.79166L6.78338 11.5333C6.72648 11.5946 6.65806 11.6441 6.58203 11.6789C6.50601 11.7138 6.42386 11.7333 6.34029 11.7364C6.25672 11.7395 6.17335 11.7261 6.09496 11.697C6.01656 11.6678 5.94467 11.6236 5.88339 11.5667C5.8221 11.5098 5.77263 11.4413 5.73779 11.3653C5.70294 11.2893 5.68342 11.2071 5.68032 11.1236C5.67723 11.04 5.69062 10.9566 5.71974 10.8782C5.74887 10.7998 5.79315 10.7279 5.85005 10.6667L10.1251 6.4C10.282 6.24308 10.3701 6.03025 10.3701 5.80833C10.3701 5.58641 10.282 5.37358 10.1251 5.21666C9.96813 5.05974 9.7553 4.97159 9.53339 4.97159C9.31147 4.97159 9.09864 5.05974 8.94172 5.21666L4.66672 9.5C4.45281 9.71225 4.28302 9.96475 4.16716 10.2429C4.0513 10.5211 3.99165 10.8195 3.99165 11.1208C3.99165 11.4222 4.0513 11.7205 4.16716 11.9987C4.28302 12.2769 4.45281 12.5294 4.66672 12.7417C5.1037 13.1579 5.68406 13.3901 6.28755 13.3901C6.89104 13.3901 7.47141 13.1579 7.90839 12.7417L13.6501 6.99166C14.3125 6.28079 14.6731 5.34056 14.6559 4.36905C14.6388 3.39754 14.2452 2.47062 13.5582 1.78355C12.8711 1.09649 11.9442 0.702929 10.9727 0.685788C10.0012 0.668647 9.06093 1.02926 8.35005 1.69166L1.68339 8.35833C0.784385 9.35402 0.304242 10.6582 0.342996 11.9991C0.381751 13.3401 0.936413 14.6144 1.89142 15.5565C2.84642 16.4986 4.12812 17.0359 5.46946 17.0564C6.8108 17.0769 8.10833 16.5791 9.09172 15.6667L14.2501 10.5167C14.3278 10.439 14.3894 10.3467 14.4314 10.2452C14.4735 10.1437 14.4951 10.0349 14.4951 9.925C14.4951 9.81511 14.4735 9.70631 14.4314 9.60479C14.3894 9.50327 14.3278 9.41103 14.2501 9.33333C14.1724 9.25563 14.0801 9.194 13.9786 9.15195C13.8771 9.1099 13.7683 9.08825 13.6584 9.08825C13.5485 9.08825 13.4397 9.1099 13.3382 9.15195C13.2367 9.194 13.1444 9.25563 13.0667 9.33333V9.35Z" fill="black"/>
</svg>
