<svg width="20" height="21" viewBox="0 0 20 21" fill="none" xmlns="http://www.w3.org/2000/svg">
<g opacity="0.5">
<path d="M15.8334 7.16666H15.0001V4.66666C15.0001 4.00362 14.7367 3.36774 14.2678 2.8989C13.799 2.43006 13.1631 2.16666 12.5001 2.16666H4.16675C3.50371 2.16666 2.86782 2.43006 2.39898 2.8989C1.93014 3.36774 1.66675 4.00362 1.66675 4.66666V14.6667C1.66757 14.8312 1.71707 14.9918 1.80902 15.1282C1.90096 15.2646 2.03123 15.3708 2.18341 15.4333C2.28231 15.48 2.39077 15.5028 2.50008 15.5C2.60975 15.5006 2.71847 15.4796 2.82 15.4381C2.92153 15.3967 3.01388 15.3356 3.09175 15.2583L5.43341 12.9083H6.66675V14.1083C6.66675 14.7714 6.93014 15.4073 7.39898 15.8761C7.86782 16.3449 8.50371 16.6083 9.16675 16.6083H14.9334L16.9084 18.5917C16.9863 18.6689 17.0786 18.73 17.1802 18.7715C17.2817 18.8129 17.3904 18.834 17.5001 18.8333C17.6094 18.8361 17.7178 18.8133 17.8167 18.7667C17.9689 18.7041 18.0992 18.598 18.1911 18.4615C18.2831 18.3251 18.3326 18.1645 18.3334 18V9.66666C18.3334 9.00362 18.07 8.36774 17.6012 7.8989C17.1323 7.43006 16.4965 7.16666 15.8334 7.16666ZM6.66675 9.66666V11.2417H5.09175C4.98208 11.241 4.87336 11.2621 4.77183 11.3035C4.67029 11.345 4.57795 11.4061 4.50008 11.4833L3.33341 12.6583V4.66666C3.33341 4.44565 3.42121 4.23369 3.57749 4.07741C3.73377 3.92113 3.94573 3.83333 4.16675 3.83333H12.5001C12.7211 3.83333 12.9331 3.92113 13.0893 4.07741C13.2456 4.23369 13.3334 4.44565 13.3334 4.66666V7.16666H9.16675C8.50371 7.16666 7.86782 7.43006 7.39898 7.8989C6.93014 8.36774 6.66675 9.00362 6.66675 9.66666ZM16.6667 15.9917L15.8334 15.1583C15.7562 15.0796 15.6642 15.0169 15.5626 14.974C15.4611 14.9311 15.352 14.9088 15.2417 14.9083H9.16675C8.94573 14.9083 8.73377 14.8205 8.57749 14.6643C8.42121 14.508 8.33342 14.296 8.33342 14.075V9.66666C8.33342 9.44565 8.42121 9.23369 8.57749 9.07741C8.73377 8.92113 8.94573 8.83333 9.16675 8.83333H15.8334C16.0544 8.83333 16.2664 8.92113 16.4227 9.07741C16.579 9.23369 16.6667 9.44565 16.6667 9.66666V15.9917Z" fill="white"/>
</g>
</svg>
