<svg width="18" height="18" viewBox="0 0 18 18" fill="none" xmlns="http://www.w3.org/2000/svg">
<rect x="1.16675" y="1.16666" width="15.6667" height="15.6667" rx="2.5" fill="#2196F3"/>
<rect x="1.16675" y="1.16666" width="15.6667" height="15.6667" rx="2.5" stroke="#2196F3"/>
<path d="M13.6598 5.67361C13.5953 5.60852 13.5185 5.55686 13.4338 5.5216C13.3492 5.48634 13.2585 5.46819 13.1668 5.46819C13.0751 5.46819 12.9843 5.48634 12.8997 5.5216C12.8151 5.55686 12.7383 5.60852 12.6737 5.67361L7.50011 10.8542L5.3265 8.67361C5.25947 8.60886 5.18035 8.55795 5.09364 8.52378C5.00694 8.48961 4.91435 8.47285 4.82117 8.47446C4.72799 8.47608 4.63604 8.49602 4.55057 8.53317C4.4651 8.57032 4.38778 8.62394 4.32303 8.69097C4.25828 8.758 4.20737 8.83712 4.1732 8.92383C4.13903 9.01053 4.12227 9.10312 4.12389 9.1963C4.1255 9.28948 4.14545 9.38143 4.1826 9.4669C4.21974 9.55238 4.27336 9.62969 4.34039 9.69444L7.00706 12.3611C7.07162 12.4262 7.14842 12.4779 7.23305 12.5131C7.31767 12.5484 7.40844 12.5665 7.50011 12.5665C7.59179 12.5665 7.68256 12.5484 7.76718 12.5131C7.85181 12.4779 7.92861 12.4262 7.99317 12.3611L13.6598 6.69444C13.7303 6.62941 13.7866 6.55049 13.8251 6.46264C13.8635 6.37479 13.8834 6.27993 13.8834 6.18403C13.8834 6.08812 13.8635 5.99326 13.8251 5.90541C13.7866 5.81756 13.7303 5.73864 13.6598 5.67361Z" fill="white"/>
</svg>
