<svg width="14" height="15" viewBox="0 0 14 15" fill="none" xmlns="http://www.w3.org/2000/svg">
<path d="M7.00004 6.83333C6.82323 6.83333 6.65366 6.90357 6.52864 7.0286C6.40362 7.15362 6.33338 7.32319 6.33338 7.5V10.1667C6.33338 10.3435 6.40362 10.513 6.52864 10.6381C6.65366 10.7631 6.82323 10.8333 7.00004 10.8333C7.17686 10.8333 7.34642 10.7631 7.47145 10.6381C7.59647 10.513 7.66671 10.3435 7.66671 10.1667V7.5C7.66671 7.32319 7.59647 7.15362 7.47145 7.0286C7.34642 6.90357 7.17686 6.83333 7.00004 6.83333ZM7.25338 4.22C7.09107 4.15332 6.90902 4.15332 6.74671 4.22C6.66488 4.25173 6.59011 4.29931 6.52671 4.36C6.46782 4.4248 6.42047 4.49921 6.38671 4.58C6.34939 4.65912 6.33112 4.74588 6.33338 4.83333C6.33287 4.92107 6.34969 5.00805 6.38286 5.08927C6.41604 5.1705 6.46492 5.24437 6.52671 5.30667C6.59151 5.36555 6.66592 5.41291 6.74671 5.44667C6.84771 5.48816 6.95735 5.50421 7.06601 5.49341C7.17466 5.48261 7.279 5.44528 7.36985 5.38471C7.4607 5.32415 7.53529 5.24219 7.58705 5.14605C7.63881 5.04991 7.66617 4.94252 7.66671 4.83333C7.66426 4.65682 7.5952 4.48776 7.47338 4.36C7.40998 4.29931 7.33521 4.25173 7.25338 4.22ZM7.00004 0.833333C5.6815 0.833333 4.39257 1.22433 3.29624 1.95687C2.19991 2.68941 1.34543 3.7306 0.840847 4.94878C0.336263 6.16695 0.20424 7.5074 0.461475 8.8006C0.71871 10.0938 1.35365 11.2817 2.286 12.214C3.21835 13.1464 4.40624 13.7813 5.69944 14.0386C6.99265 14.2958 8.33309 14.1638 9.55127 13.6592C10.7694 13.1546 11.8106 12.3001 12.5432 11.2038C13.2757 10.1075 13.6667 8.81854 13.6667 7.5C13.6667 6.62452 13.4943 5.75761 13.1592 4.94878C12.8242 4.13994 12.3331 3.40501 11.7141 2.78595C11.095 2.1669 10.3601 1.67583 9.55127 1.3408C8.74243 1.00577 7.87552 0.833333 7.00004 0.833333ZM7.00004 12.8333C5.94521 12.8333 4.91406 12.5205 4.037 11.9345C3.15994 11.3485 2.47635 10.5155 2.07269 9.54098C1.66902 8.56644 1.5634 7.49408 1.76919 6.45952C1.97498 5.42495 2.48293 4.47464 3.22881 3.72876C3.97469 2.98288 4.925 2.47493 5.95956 2.26915C6.99413 2.06336 8.06648 2.16898 9.04102 2.57264C10.0156 2.97631 10.8485 3.6599 11.4345 4.53696C12.0206 5.41402 12.3334 6.44517 12.3334 7.5C12.3334 8.91449 11.7715 10.271 10.7713 11.2712C9.77109 12.2714 8.41453 12.8333 7.00004 12.8333Z" fill="#2196F3"/>
</svg>
