<svg width="18" height="18" viewBox="0 0 18 18" fill="none" xmlns="http://www.w3.org/2000/svg">
<path d="M16.0833 10.6667C15.8623 10.6667 15.6504 10.7545 15.4941 10.9108C15.3378 11.067 15.25 11.279 15.25 11.5V14.8333C15.25 15.0544 15.1622 15.2663 15.0059 15.4226C14.8496 15.5789 14.6377 15.6667 14.4167 15.6667H2.75C2.52899 15.6667 2.31702 15.5789 2.16074 15.4226C2.00446 15.2663 1.91667 15.0544 1.91667 14.8333V6.84168L6.81667 11.75C7.28542 12.2182 7.92083 12.4811 8.58333 12.4811C9.24584 12.4811 9.88125 12.2182 10.35 11.75L11.7167 10.3833C11.8736 10.2264 11.9617 10.0136 11.9617 9.79168C11.9617 9.56976 11.8736 9.35693 11.7167 9.20002C11.5597 9.04309 11.3469 8.95494 11.125 8.95494C10.9031 8.95494 10.6903 9.04309 10.5333 9.20002L9.16667 10.5667C9.01089 10.7194 8.80146 10.8049 8.58333 10.8049C8.36521 10.8049 8.15577 10.7194 8 10.5667L3.09167 5.66668H8.58333C8.80435 5.66668 9.01631 5.57888 9.17259 5.4226C9.32887 5.26632 9.41667 5.05436 9.41667 4.83335C9.41667 4.61233 9.32887 4.40037 9.17259 4.24409C9.01631 4.08781 8.80435 4.00002 8.58333 4.00002H2.75C2.08696 4.00002 1.45107 4.26341 0.982233 4.73225C0.513392 5.20109 0.25 5.83697 0.25 6.50002V14.8333C0.25 15.4964 0.513392 16.1323 0.982233 16.6011C1.45107 17.07 2.08696 17.3333 2.75 17.3333H14.4167C15.0797 17.3333 15.7156 17.07 16.1844 16.6011C16.6533 16.1323 16.9167 15.4964 16.9167 14.8333V11.5C16.9167 11.279 16.8289 11.067 16.6726 10.9108C16.5163 10.7545 16.3043 10.6667 16.0833 10.6667ZM17.5083 3.40835L15.0083 0.908349C14.9291 0.832482 14.8356 0.773011 14.7333 0.733349C14.5304 0.65 14.3029 0.65 14.1 0.733349C13.9977 0.773011 13.9043 0.832482 13.825 0.908349L11.325 3.40835C11.1681 3.56527 11.0799 3.7781 11.0799 4.00002C11.0799 4.22193 11.1681 4.43476 11.325 4.59168C11.4819 4.7486 11.6947 4.83676 11.9167 4.83676C12.1386 4.83676 12.3514 4.7486 12.5083 4.59168L13.5833 3.50835V8.16668C13.5833 8.3877 13.6711 8.59966 13.8274 8.75594C13.9837 8.91222 14.1957 9.00002 14.4167 9.00002C14.6377 9.00002 14.8496 8.91222 15.0059 8.75594C15.1622 8.59966 15.25 8.3877 15.25 8.16668V3.50835L16.325 4.59168C16.4025 4.66979 16.4946 4.73178 16.5962 4.77409C16.6977 4.8164 16.8067 4.83818 16.9167 4.83818C17.0267 4.83818 17.1356 4.8164 17.2371 4.77409C17.3387 4.73178 17.4309 4.66979 17.5083 4.59168C17.5864 4.51421 17.6484 4.42205 17.6907 4.3205C17.733 4.21895 17.7548 4.11003 17.7548 4.00002C17.7548 3.89001 17.733 3.78108 17.6907 3.67953C17.6484 3.57799 17.5864 3.48582 17.5083 3.40835Z" fill="#383645"/>
</svg>
