<svg width="11" height="10" viewBox="0 0 11 10" fill="none" xmlns="http://www.w3.org/2000/svg">
<path d="M6.00006 0C5.34345 0 4.69327 0.129329 4.08664 0.380602C3.48001 0.631876 2.92881 1.00017 2.46452 1.46447C1.52684 2.40215 1.00006 3.67392 1.00006 5C0.995684 6.15457 1.39545 7.27427 2.13006 8.165L1.13006 9.165C1.06068 9.23531 1.01368 9.3246 0.994991 9.42159C0.976304 9.51859 0.986765 9.61894 1.02506 9.71C1.06658 9.79996 1.13391 9.87556 1.21848 9.92719C1.30305 9.97883 1.40106 10.0042 1.50006 10H6.00006C7.32614 10 8.59791 9.47322 9.53559 8.53553C10.4733 7.59785 11.0001 6.32608 11.0001 5C11.0001 3.67392 10.4733 2.40215 9.53559 1.46447C8.59791 0.526784 7.32614 0 6.00006 0ZM6.00006 9H2.70505L3.17006 8.535C3.26318 8.44132 3.31545 8.31459 3.31545 8.1825C3.31545 8.05041 3.26318 7.92368 3.17006 7.83C2.51535 7.17602 2.10764 6.31527 2.0164 5.3944C1.92516 4.47352 2.15603 3.5495 2.66967 2.77976C3.18331 2.01002 3.94795 1.44218 4.83331 1.17299C5.71868 0.903794 6.66998 0.949902 7.52516 1.30346C8.38034 1.65701 9.08648 2.29614 9.52327 3.11195C9.96007 3.92775 10.1005 4.86977 9.92062 5.7775C9.74075 6.68524 9.25171 7.50252 8.53682 8.09012C7.82194 8.67772 6.92544 8.99927 6.00006 9Z" fill="#8C8B98"/>
</svg>
