<svg width="20" height="20" viewBox="0 0 20 20" fill="none" xmlns="http://www.w3.org/2000/svg">
<path d="M15.8333 1.66666H4.16663C3.50358 1.66666 2.8677 1.93005 2.39886 2.39889C1.93002 2.86773 1.66663 3.50362 1.66663 4.16666V12.5C1.66663 13.163 1.93002 13.7989 2.39886 14.2678C2.8677 14.7366 3.50358 15 4.16663 15H13.825L16.9083 18.0917C16.9862 18.1689 17.0785 18.23 17.18 18.2715C17.2816 18.3129 17.3903 18.334 17.5 18.3333C17.6093 18.3361 17.7177 18.3133 17.8166 18.2667C17.9688 18.2041 18.0991 18.098 18.191 17.9615C18.283 17.8251 18.3325 17.6645 18.3333 17.5V4.16666C18.3333 3.50362 18.0699 2.86773 17.6011 2.39889C17.1322 1.93005 16.4963 1.66666 15.8333 1.66666ZM16.6666 15.4917L14.7583 13.575C14.6804 13.4978 14.5881 13.4367 14.4865 13.3952C14.385 13.3537 14.2763 13.3327 14.1666 13.3333H4.16663C3.94561 13.3333 3.73365 13.2455 3.57737 13.0892C3.42109 12.933 3.33329 12.721 3.33329 12.5V4.16666C3.33329 3.94564 3.42109 3.73368 3.57737 3.5774C3.73365 3.42112 3.94561 3.33332 4.16663 3.33332H15.8333C16.0543 3.33332 16.2663 3.42112 16.4225 3.5774C16.5788 3.73368 16.6666 3.94564 16.6666 4.16666V15.4917Z" fill="white"/>
</svg>
