<svg width="12" height="15" viewBox="0 0 12 15" fill="none" xmlns="http://www.w3.org/2000/svg">
<path d="M12 5.46C11.9931 5.39876 11.9796 5.33842 11.96 5.28V5.22C11.9279 5.15145 11.8852 5.08844 11.8333 5.03333L7.83333 1.03333C7.77822 0.981478 7.71521 0.938721 7.64667 0.906667C7.62677 0.90384 7.60657 0.90384 7.58667 0.906667C7.51894 0.867828 7.44415 0.842896 7.36667 0.833333H4.66667C4.13623 0.833333 3.62753 1.04405 3.25245 1.41912C2.87738 1.79419 2.66667 2.3029 2.66667 2.83333V3.5H2C1.46957 3.5 0.960859 3.71071 0.585787 4.08579C0.210714 4.46086 0 4.96957 0 5.5V12.1667C0 12.6971 0.210714 13.2058 0.585787 13.5809C0.960859 13.956 1.46957 14.1667 2 14.1667H7.33333C7.86377 14.1667 8.37247 13.956 8.74755 13.5809C9.12262 13.2058 9.33333 12.6971 9.33333 12.1667V11.5H10C10.5304 11.5 11.0391 11.2893 11.4142 10.9142C11.7893 10.5391 12 10.0304 12 9.5V5.5C12 5.5 12 5.5 12 5.46ZM8 3.10667L9.72667 4.83333H8.66667C8.48986 4.83333 8.32029 4.7631 8.19526 4.63807C8.07024 4.51305 8 4.34348 8 4.16667V3.10667ZM8 12.1667C8 12.3435 7.92976 12.513 7.80474 12.6381C7.67971 12.7631 7.51014 12.8333 7.33333 12.8333H2C1.82319 12.8333 1.65362 12.7631 1.5286 12.6381C1.40357 12.513 1.33333 12.3435 1.33333 12.1667V5.5C1.33333 5.32319 1.40357 5.15362 1.5286 5.0286C1.65362 4.90357 1.82319 4.83333 2 4.83333H2.66667V9.5C2.66667 10.0304 2.87738 10.5391 3.25245 10.9142C3.62753 11.2893 4.13623 11.5 4.66667 11.5H8V12.1667ZM10.6667 9.5C10.6667 9.67681 10.5964 9.84638 10.4714 9.9714C10.3464 10.0964 10.1768 10.1667 10 10.1667H4.66667C4.48986 10.1667 4.32029 10.0964 4.19526 9.9714C4.07024 9.84638 4 9.67681 4 9.5V2.83333C4 2.65652 4.07024 2.48695 4.19526 2.36193C4.32029 2.2369 4.48986 2.16667 4.66667 2.16667H6.66667V4.16667C6.66667 4.6971 6.87738 5.20581 7.25245 5.58088C7.62753 5.95595 8.13623 6.16667 8.66667 6.16667H10.6667V9.5Z" fill="#2196F3"/>
</svg>
