<svg width="20" height="20" viewBox="0 0 20 20" fill="none" xmlns="http://www.w3.org/2000/svg">
<g opacity="0.5">
<path d="M15.8334 3.33332H14.1667V2.49999C14.1667 2.27898 14.079 2.06701 13.9227 1.91073C13.7664 1.75445 13.5544 1.66666 13.3334 1.66666C13.1124 1.66666 12.9004 1.75445 12.7442 1.91073C12.5879 2.06701 12.5001 2.27898 12.5001 2.49999V3.33332H7.50008V2.49999C7.50008 2.27898 7.41228 2.06701 7.256 1.91073C7.09972 1.75445 6.88776 1.66666 6.66675 1.66666C6.44573 1.66666 6.23377 1.75445 6.07749 1.91073C5.92121 2.06701 5.83342 2.27898 5.83342 2.49999V3.33332H4.16675C3.50371 3.33332 2.86782 3.59672 2.39898 4.06556C1.93014 4.5344 1.66675 5.17028 1.66675 5.83332V15.8333C1.66675 16.4964 1.93014 17.1322 2.39898 17.6011C2.86782 18.0699 3.50371 18.3333 4.16675 18.3333H15.8334C16.4965 18.3333 17.1323 18.0699 17.6012 17.6011C18.07 17.1322 18.3334 16.4964 18.3334 15.8333V5.83332C18.3334 5.17028 18.07 4.5344 17.6012 4.06556C17.1323 3.59672 16.4965 3.33332 15.8334 3.33332ZM16.6667 15.8333C16.6667 16.0543 16.579 16.2663 16.4227 16.4226C16.2664 16.5789 16.0544 16.6667 15.8334 16.6667H4.16675C3.94573 16.6667 3.73377 16.5789 3.57749 16.4226C3.42121 16.2663 3.33341 16.0543 3.33341 15.8333V9.99999H16.6667V15.8333ZM16.6667 8.33332H3.33341V5.83332C3.33341 5.61231 3.42121 5.40035 3.57749 5.24407C3.73377 5.08779 3.94573 4.99999 4.16675 4.99999H5.83342V5.83332C5.83342 6.05434 5.92121 6.2663 6.07749 6.42258C6.23377 6.57886 6.44573 6.66666 6.66675 6.66666C6.88776 6.66666 7.09972 6.57886 7.256 6.42258C7.41228 6.2663 7.50008 6.05434 7.50008 5.83332V4.99999H12.5001V5.83332C12.5001 6.05434 12.5879 6.2663 12.7442 6.42258C12.9004 6.57886 13.1124 6.66666 13.3334 6.66666C13.5544 6.66666 13.7664 6.57886 13.9227 6.42258C14.079 6.2663 14.1667 6.05434 14.1667 5.83332V4.99999H15.8334C16.0544 4.99999 16.2664 5.08779 16.4227 5.24407C16.579 5.40035 16.6667 5.61231 16.6667 5.83332V8.33332Z" fill="black"/>
</g>
</svg>
