<svg width="12" height="15" viewBox="0 0 12 15" fill="none" xmlns="http://www.w3.org/2000/svg">
<path d="M11.3334 5.46C11.3265 5.39876 11.3131 5.33842 11.2934 5.28V5.22C11.2614 5.15145 11.2186 5.08844 11.1667 5.03333L7.16675 1.03333C7.11164 0.981478 7.04863 0.938721 6.98008 0.906667H6.92008C6.85236 0.867828 6.77756 0.842896 6.70008 0.833333H2.66675C2.13631 0.833333 1.62761 1.04405 1.25253 1.41912C0.877462 1.79419 0.666748 2.3029 0.666748 2.83333V12.1667C0.666748 12.6971 0.877462 13.2058 1.25253 13.5809C1.62761 13.956 2.13631 14.1667 2.66675 14.1667H9.33341C9.86385 14.1667 10.3726 13.956 10.7476 13.5809C11.1227 13.2058 11.3334 12.6971 11.3334 12.1667V5.5C11.3334 5.5 11.3334 5.5 11.3334 5.46ZM7.33341 3.10667L9.06008 4.83333H8.00008C7.82327 4.83333 7.6537 4.7631 7.52868 4.63807C7.40365 4.51305 7.33341 4.34348 7.33341 4.16667V3.10667ZM10.0001 12.1667C10.0001 12.3435 9.92984 12.513 9.80482 12.6381C9.6798 12.7631 9.51023 12.8333 9.33341 12.8333H2.66675C2.48994 12.8333 2.32037 12.7631 2.19534 12.6381C2.07032 12.513 2.00008 12.3435 2.00008 12.1667V2.83333C2.00008 2.65652 2.07032 2.48695 2.19534 2.36193C2.32037 2.2369 2.48994 2.16667 2.66675 2.16667H6.00008V4.16667C6.00008 4.6971 6.21079 5.20581 6.58587 5.58088C6.96094 5.95595 7.46965 6.16667 8.00008 6.16667H10.0001V12.1667Z" fill="#2196F3"/>
</svg>
