<svg width="14" height="17" viewBox="0 0 14 17" fill="none" xmlns="http://www.w3.org/2000/svg">
<path d="M13.6666 5.95001C13.6579 5.87345 13.6411 5.79803 13.6166 5.72501V5.65001C13.5765 5.56432 13.5231 5.48556 13.4583 5.41667L8.45825 0.416672C8.38936 0.351852 8.3106 0.298406 8.22492 0.258338H8.14992C8.06526 0.209789 7.97177 0.178625 7.87492 0.166672H2.83325C2.17021 0.166672 1.53433 0.430064 1.06549 0.898905C0.596644 1.36775 0.333252 2.00363 0.333252 2.66667V14.3333C0.333252 14.9964 0.596644 15.6323 1.06549 16.1011C1.53433 16.5699 2.17021 16.8333 2.83325 16.8333H11.1666C11.8296 16.8333 12.4655 16.5699 12.9344 16.1011C13.4032 15.6323 13.6666 14.9964 13.6666 14.3333V6.00001C13.6666 6.00001 13.6666 6.00001 13.6666 5.95001ZM8.66658 3.00834L10.8249 5.16667H9.49992C9.2789 5.16667 9.06694 5.07887 8.91066 4.92259C8.75438 4.76631 8.66658 4.55435 8.66658 4.33334V3.00834ZM11.9999 14.3333C11.9999 14.5544 11.9121 14.7663 11.7558 14.9226C11.5996 15.0789 11.3876 15.1667 11.1666 15.1667H2.83325C2.61224 15.1667 2.40028 15.0789 2.244 14.9226C2.08772 14.7663 1.99992 14.5544 1.99992 14.3333V2.66667C1.99992 2.44566 2.08772 2.2337 2.244 2.07742C2.40028 1.92114 2.61224 1.83334 2.83325 1.83334H6.99992V4.33334C6.99992 4.99638 7.26331 5.63227 7.73215 6.10111C8.20099 6.56995 8.83688 6.83334 9.49992 6.83334H11.9999V14.3333Z" fill="#FFF"/>
</svg>
