<svg width="20" height="21" viewBox="0 0 20 21" fill="none" xmlns="http://www.w3.org/2000/svg">
<g opacity="0.5">
<path d="M9.16675 7.99999H12.5001C12.7211 7.99999 12.9331 7.91219 13.0893 7.75591C13.2456 7.59963 13.3334 7.38767 13.3334 7.16666C13.3334 6.94564 13.2456 6.73368 13.0893 6.5774C12.9331 6.42112 12.7211 6.33332 12.5001 6.33332H10.8334V5.49999C10.8334 5.27898 10.7456 5.06701 10.5893 4.91073C10.4331 4.75445 10.2211 4.66666 10.0001 4.66666C9.77907 4.66666 9.56711 4.75445 9.41083 4.91073C9.25455 5.06701 9.16675 5.27898 9.16675 5.49999V6.33332C8.50371 6.33332 7.86782 6.59672 7.39898 7.06556C6.93014 7.5344 6.66675 8.17028 6.66675 8.83332C6.66675 9.49636 6.93014 10.1322 7.39898 10.6011C7.86782 11.0699 8.50371 11.3333 9.16675 11.3333H10.8334C11.0544 11.3333 11.2664 11.4211 11.4227 11.5774C11.579 11.7337 11.6667 11.9456 11.6667 12.1667C11.6667 12.3877 11.579 12.5996 11.4227 12.7559C11.2664 12.9122 11.0544 13 10.8334 13H7.50008C7.27907 13 7.06711 13.0878 6.91083 13.2441C6.75455 13.4003 6.66675 13.6123 6.66675 13.8333C6.66675 14.0543 6.75455 14.2663 6.91083 14.4226C7.06711 14.5789 7.27907 14.6667 7.50008 14.6667H9.16675V15.5C9.16675 15.721 9.25455 15.933 9.41083 16.0892C9.56711 16.2455 9.77907 16.3333 10.0001 16.3333C10.2211 16.3333 10.4331 16.2455 10.5893 16.0892C10.7456 15.933 10.8334 15.721 10.8334 15.5V14.6667C11.4965 14.6667 12.1323 14.4033 12.6012 13.9344C13.07 13.4656 13.3334 12.8297 13.3334 12.1667C13.3334 11.5036 13.07 10.8677 12.6012 10.3989C12.1323 9.93005 11.4965 9.66666 10.8334 9.66666H9.16675C8.94573 9.66666 8.73377 9.57886 8.57749 9.42258C8.42121 9.2663 8.33342 9.05434 8.33342 8.83332C8.33342 8.61231 8.42121 8.40035 8.57749 8.24407C8.73377 8.08779 8.94573 7.99999 9.16675 7.99999ZM15.8334 2.16666H4.16675C3.50371 2.16666 2.86782 2.43005 2.39898 2.89889C1.93014 3.36773 1.66675 4.00362 1.66675 4.66666V16.3333C1.66675 16.9964 1.93014 17.6322 2.39898 18.1011C2.86782 18.5699 3.50371 18.8333 4.16675 18.8333H15.8334C16.4965 18.8333 17.1323 18.5699 17.6012 18.1011C18.07 17.6322 18.3334 16.9964 18.3334 16.3333V4.66666C18.3334 4.00362 18.07 3.36773 17.6012 2.89889C17.1323 2.43005 16.4965 2.16666 15.8334 2.16666ZM16.6667 16.3333C16.6667 16.5543 16.579 16.7663 16.4227 16.9226C16.2664 17.0789 16.0544 17.1667 15.8334 17.1667H4.16675C3.94573 17.1667 3.73377 17.0789 3.57749 16.9226C3.42121 16.7663 3.33341 16.5543 3.33341 16.3333V4.66666C3.33341 4.44564 3.42121 4.23368 3.57749 4.0774C3.73377 3.92112 3.94573 3.83332 4.16675 3.83332H15.8334C16.0544 3.83332 16.2664 3.92112 16.4227 4.0774C16.579 4.23368 16.6667 4.44564 16.6667 4.66666V16.3333Z" fill="white"/>
</g>
</svg>
