<svg width="8" height="10" viewBox="0 0 8 10" fill="none" xmlns="http://www.w3.org/2000/svg">
<path d="M4.59167 5.44995C4.5142 5.37184 4.42204 5.30985 4.32049 5.26754C4.21894 5.22523 4.11002 5.20345 4.00001 5.20345C3.89 5.20345 3.78108 5.22523 3.67953 5.26754C3.57798 5.30985 3.48581 5.37184 3.40834 5.44995L0.908341 7.94995C0.747001 8.10687 0.654605 8.32145 0.65148 8.5465C0.648354 8.77154 0.734755 8.98861 0.891675 9.14995C1.04859 9.31129 1.26318 9.40368 1.48822 9.40681C1.71327 9.40993 1.93033 9.32353 2.09167 9.16661L4.00001 7.21662L5.90834 9.16661C5.98581 9.24472 6.07798 9.30672 6.17953 9.34902C6.28108 9.39133 6.39 9.41311 6.50001 9.41311C6.61002 9.41311 6.71894 9.39133 6.82049 9.34902C6.92204 9.30672 7.0142 9.24472 7.09167 9.16661C7.16978 9.08915 7.23178 8.99698 7.27408 8.89543C7.31639 8.79388 7.33817 8.68496 7.33817 8.57495C7.33817 8.46494 7.31639 8.35602 7.27408 8.25447C7.23178 8.15292 7.16978 8.06075 7.09167 7.98328L4.59167 5.44995ZM2.09167 4.54995L4.00001 2.63328L5.90834 4.54995C5.98581 4.62806 6.07798 4.69005 6.17953 4.73236C6.28108 4.77467 6.39 4.79645 6.50001 4.79645C6.61002 4.79645 6.71894 4.77467 6.82049 4.73236C6.92204 4.69005 7.0142 4.62806 7.09167 4.54995C7.16978 4.47248 7.23178 4.38031 7.27408 4.27876C7.31639 4.17721 7.33817 4.06829 7.33817 3.95828C7.33817 3.84827 7.31639 3.73935 7.27408 3.6378C7.23178 3.53625 7.16978 3.44408 7.09167 3.36662L4.59167 0.866616C4.5142 0.788509 4.42204 0.726514 4.32049 0.684206C4.21894 0.641899 4.11002 0.620117 4.00001 0.620117C3.89 0.620117 3.78108 0.641899 3.67953 0.684206C3.57798 0.726514 3.48581 0.788509 3.40834 0.866616L0.908341 3.36662C0.751421 3.52354 0.663265 3.73636 0.663265 3.95828C0.663265 4.1802 0.751421 4.39303 0.908341 4.54995C1.06526 4.70687 1.27809 4.79502 1.50001 4.79502C1.72193 4.79502 1.93475 4.70687 2.09167 4.54995Z" fill="#EF5350"/>
</svg>
