<svg width="18" height="18" viewBox="0 0 18 18" fill="none" xmlns="http://www.w3.org/2000/svg">
<path d="M16.5 10.6667C16.2789 10.6667 16.067 10.7545 15.9107 10.9107C15.7544 11.067 15.6666 11.279 15.6666 11.5V14.8333C15.6666 15.0543 15.5788 15.2663 15.4225 15.4226C15.2663 15.5789 15.0543 15.6667 14.8333 15.6667H3.16663C2.94561 15.6667 2.73365 15.5789 2.57737 15.4226C2.42109 15.2663 2.33329 15.0543 2.33329 14.8333V11.5C2.33329 11.279 2.2455 11.067 2.08922 10.9107C1.93293 10.7545 1.72097 10.6667 1.49996 10.6667C1.27895 10.6667 1.06698 10.7545 0.910704 10.9107C0.754423 11.067 0.666626 11.279 0.666626 11.5V14.8333C0.666626 15.4964 0.930018 16.1322 1.39886 16.6011C1.8677 17.0699 2.50358 17.3333 3.16663 17.3333H14.8333C15.4963 17.3333 16.1322 17.0699 16.6011 16.6011C17.0699 16.1322 17.3333 15.4964 17.3333 14.8333V11.5C17.3333 11.279 17.2455 11.067 17.0892 10.9107C16.9329 10.7545 16.721 10.6667 16.5 10.6667ZM8.40829 12.0917C8.48755 12.1675 8.581 12.227 8.68329 12.2667C8.78304 12.3107 8.8909 12.3335 8.99996 12.3335C9.10902 12.3335 9.21688 12.3107 9.31663 12.2667C9.41892 12.227 9.51237 12.1675 9.59163 12.0917L12.925 8.75832C13.0819 8.6014 13.17 8.38858 13.17 8.16666C13.17 7.94474 13.0819 7.73191 12.925 7.57499C12.768 7.41807 12.5552 7.32991 12.3333 7.32991C12.1114 7.32991 11.8985 7.41807 11.7416 7.57499L9.83329 9.49166V1.49999C9.83329 1.27898 9.7455 1.06701 9.58922 0.910734C9.43293 0.754454 9.22097 0.666656 8.99996 0.666656C8.77895 0.666656 8.56698 0.754454 8.4107 0.910734C8.25442 1.06701 8.16663 1.27898 8.16663 1.49999V9.49166L6.25829 7.57499C6.18059 7.49729 6.08835 7.43566 5.98683 7.39361C5.88532 7.35156 5.77651 7.32991 5.66663 7.32991C5.55674 7.32991 5.44794 7.35156 5.34642 7.39361C5.2449 7.43566 5.15266 7.49729 5.07496 7.57499C4.99726 7.65269 4.93563 7.74493 4.89358 7.84645C4.85153 7.94797 4.82988 8.05677 4.82988 8.16666C4.82988 8.27654 4.85153 8.38535 4.89358 8.48687C4.93563 8.58838 4.99726 8.68062 5.07496 8.75832L8.40829 12.0917Z" fill="#535260"/>
</svg>
