<svg width="18" height="18" viewBox="0 0 18 18" fill="none" xmlns="http://www.w3.org/2000/svg">
<path d="M17.3332 5.03334C17.3338 4.92367 17.3128 4.81495 17.2713 4.71342C17.2299 4.61188 17.1688 4.51954 17.0915 4.44167L13.5582 0.908337C13.4803 0.831103 13.388 0.769998 13.2864 0.728528C13.1849 0.687057 13.0762 0.666036 12.9665 0.66667C12.8568 0.666036 12.7481 0.687057 12.6466 0.728528C12.5451 0.769998 12.4527 0.831103 12.3749 0.908337L10.0165 3.26667L0.908184 12.375C0.83095 12.4529 0.769846 12.5452 0.728375 12.6467C0.686905 12.7483 0.665884 12.857 0.666518 12.9667V16.5C0.666518 16.721 0.754315 16.933 0.910595 17.0893C1.06688 17.2455 1.27884 17.3333 1.49985 17.3333H5.03318C5.14979 17.3397 5.26643 17.3214 5.37553 17.2798C5.48464 17.2382 5.58378 17.1741 5.66652 17.0917L14.7249 7.98334L17.0915 5.66667C17.1676 5.5859 17.2296 5.49295 17.2749 5.39167C17.2829 5.32525 17.2829 5.2581 17.2749 5.19167C17.2787 5.15288 17.2787 5.1138 17.2749 5.075L17.3332 5.03334ZM4.69152 15.6667H2.33318V13.3083L10.6082 5.03334L12.9665 7.39167L4.69152 15.6667ZM14.1415 6.21667L11.7832 3.85834L12.9665 2.68334L15.3165 5.03334L14.1415 6.21667Z" fill="white"/>
</svg>
