<svg width="15" height="16" viewBox="0 0 15 16" fill="none" xmlns="http://www.w3.org/2000/svg">
<path d="M15 4.43001C15.0006 4.33131 14.9817 4.23346 14.9443 4.14208C14.907 4.0507 14.852 3.96759 14.7825 3.89751L11.6025 0.717513C11.5324 0.648001 11.4493 0.593008 11.3579 0.555684C11.2666 0.518361 11.1687 0.499442 11.07 0.500013C10.9713 0.499442 10.8735 0.518361 10.7821 0.555684C10.6907 0.593008 10.6076 0.648001 10.5375 0.717513L8.41501 2.84001L0.217513 11.0375C0.148001 11.1076 0.0930076 11.1907 0.0556841 11.2821C0.0183607 11.3735 -0.000558134 11.4713 1.25357e-05 11.57V14.75C1.25357e-05 14.9489 0.0790301 15.1397 0.219682 15.2803C0.360335 15.421 0.5511 15.5 0.750013 15.5H3.93001C4.03496 15.5057 4.13993 15.4893 4.23813 15.4518C4.33632 15.4144 4.42555 15.3567 4.50001 15.2825L12.6525 7.08501L14.7825 5.00001C14.851 4.92732 14.9067 4.84366 14.9475 4.75251C14.9547 4.69273 14.9547 4.63229 14.9475 4.57251C14.951 4.5376 14.951 4.50242 14.9475 4.46751L15 4.43001ZM3.62251 14H1.50001V11.8775L8.94751 4.43001L11.07 6.55251L3.62251 14ZM12.1275 5.49501L10.005 3.37251L11.07 2.31501L13.185 4.43001L12.1275 5.49501Z" fill="#8C8B98"/>
</svg>
