<svg width="18" height="18" viewBox="0 0 18 18" fill="none" xmlns="http://www.w3.org/2000/svg">
<path d="M7.50835 11.2917C7.58582 11.3698 7.67799 11.4318 7.77954 11.4741C7.88109 11.5164 7.99001 11.5382 8.10002 11.5382C8.21003 11.5382 8.31895 11.5164 8.4205 11.4741C8.52205 11.4318 8.61422 11.3698 8.69169 11.2917L12.0917 7.89166C12.2486 7.73474 12.3368 7.52191 12.3368 7.29999C12.3368 7.07807 12.2486 6.86524 12.0917 6.70832C11.9348 6.5514 11.7219 6.46325 11.5 6.46325C11.2781 6.46325 11.0653 6.5514 10.9084 6.70832L8.10002 9.52499L7.09169 8.50832C6.93477 8.3514 6.72194 8.26325 6.50002 8.26325C6.2781 8.26325 6.06527 8.3514 5.90835 8.50832C5.75143 8.66524 5.66328 8.87807 5.66328 9.09999C5.66328 9.32191 5.75143 9.53474 5.90835 9.69166L7.50835 11.2917ZM16.5 0.666656H1.50002C1.27901 0.666656 1.06704 0.754454 0.910765 0.910734C0.754484 1.06701 0.666687 1.27898 0.666687 1.49999V16.5C0.666687 16.721 0.754484 16.933 0.910765 17.0892C1.06704 17.2455 1.27901 17.3333 1.50002 17.3333H16.5C16.721 17.3333 16.933 17.2455 17.0893 17.0892C17.2456 16.933 17.3334 16.721 17.3334 16.5V1.49999C17.3334 1.27898 17.2456 1.06701 17.0893 0.910734C16.933 0.754454 16.721 0.666656 16.5 0.666656ZM15.6667 15.6667H2.33335V2.33332H15.6667V15.6667Z" fill="white"/>
</svg>
