<svg width="18" height="18" viewBox="0 0 18 18" fill="none" xmlns="http://www.w3.org/2000/svg">
<path d="M11.2667 6.32501L7.69169 9.90834L6.31669 8.53334C6.24198 8.4461 6.15005 8.37525 6.04667 8.32523C5.94328 8.27521 5.83067 8.24711 5.7159 8.24267C5.60114 8.23824 5.48669 8.25758 5.37975 8.29947C5.27282 8.34137 5.17569 8.40492 5.09448 8.48613C5.01327 8.56734 4.94972 8.66447 4.90783 8.7714C4.86593 8.87834 4.84659 8.99278 4.85103 9.10755C4.85546 9.22232 4.88357 9.33493 4.93359 9.43831C4.98361 9.5417 5.05446 9.63363 5.14169 9.70834L7.10002 11.675C7.17789 11.7522 7.27024 11.8133 7.37177 11.8548C7.4733 11.8963 7.58202 11.9173 7.69169 11.9167C7.91031 11.9158 8.11981 11.829 8.27502 11.675L12.4417 7.50834C12.5198 7.43087 12.5818 7.3387 12.6241 7.23715C12.6664 7.1356 12.6882 7.02668 12.6882 6.91667C12.6882 6.80666 12.6664 6.69774 12.6241 6.59619C12.5818 6.49464 12.5198 6.40247 12.4417 6.32501C12.2856 6.1698 12.0743 6.08268 11.8542 6.08268C11.634 6.08268 11.4228 6.1698 11.2667 6.32501ZM9.00002 0.666672C7.35185 0.666672 5.74068 1.15541 4.37027 2.07109C2.99986 2.98677 1.93176 4.28826 1.30103 5.81098C0.670298 7.33369 0.50527 9.00925 0.826813 10.6258C1.14836 12.2423 1.94203 13.7271 3.10747 14.8926C4.27291 16.058 5.75776 16.8517 7.37427 17.1732C8.99078 17.4948 10.6663 17.3297 12.1891 16.699C13.7118 16.0683 15.0133 15.0002 15.9289 13.6298C16.8446 12.2593 17.3334 10.6482 17.3334 9.00001C17.3334 7.90566 17.1178 6.82202 16.699 5.81098C16.2802 4.79993 15.6664 3.88127 14.8926 3.10745C14.1188 2.33363 13.2001 1.7198 12.1891 1.30101C11.178 0.88222 10.0944 0.666672 9.00002 0.666672ZM9.00002 15.6667C7.68148 15.6667 6.39255 15.2757 5.29622 14.5431C4.19989 13.8106 3.34541 12.7694 2.84083 11.5512C2.33624 10.3331 2.20422 8.99261 2.46146 7.6994C2.71869 6.4062 3.35363 5.21831 4.28598 4.28596C5.21833 3.35361 6.40622 2.71867 7.69942 2.46144C8.99263 2.2042 10.3331 2.33622 11.5512 2.84081C12.7694 3.34539 13.8106 4.19988 14.5432 5.2962C15.2757 6.39253 15.6667 7.68146 15.6667 9.00001C15.6667 10.7681 14.9643 12.4638 13.7141 13.7141C12.4638 14.9643 10.7681 15.6667 9.00002 15.6667Z" fill="#383645"/>
</svg>
