<svg width="20" height="21" viewBox="0 0 20 21" fill="none" xmlns="http://www.w3.org/2000/svg">
<g opacity="0.5">
<path d="M5.83333 13.8333C6.16485 13.8333 6.4828 13.7016 6.71722 13.4672C6.95164 13.2328 7.08333 12.9149 7.08333 12.5833C7.0874 12.5418 7.0874 12.4999 7.08333 12.4583L9.40833 10.1333H9.6H9.79167L11.1333 11.475C11.1333 11.475 11.1333 11.5167 11.1333 11.5417C11.1333 11.8732 11.265 12.1911 11.4994 12.4256C11.7339 12.66 12.0518 12.7917 12.3833 12.7917C12.7149 12.7917 13.0328 12.66 13.2672 12.4256C13.5016 12.1911 13.6333 11.8732 13.6333 11.5417V11.475L16.6667 8.41667C16.9139 8.41667 17.1556 8.34336 17.3611 8.20601C17.5667 8.06866 17.7269 7.87343 17.8215 7.64503C17.9161 7.41662 17.9409 7.16529 17.8926 6.92281C17.8444 6.68033 17.7254 6.4576 17.5505 6.28279C17.3757 6.10797 17.153 5.98892 16.9105 5.94069C16.6681 5.89246 16.4167 5.91721 16.1883 6.01182C15.9599 6.10643 15.7647 6.26665 15.6273 6.47221C15.49 6.67777 15.4167 6.91945 15.4167 7.16667C15.4126 7.20824 15.4126 7.2501 15.4167 7.29167L12.4083 10.3H12.275L10.8333 8.83334C10.8333 8.50182 10.7016 8.18388 10.4672 7.94946C10.2328 7.71503 9.91485 7.58334 9.58333 7.58334C9.25181 7.58334 8.93387 7.71503 8.69945 7.94946C8.46503 8.18388 8.33333 8.50182 8.33333 8.83334L5.83333 11.3333C5.50181 11.3333 5.18387 11.465 4.94945 11.6995C4.71503 11.9339 4.58333 12.2518 4.58333 12.5833C4.58333 12.9149 4.71503 13.2328 4.94945 13.4672C5.18387 13.7016 5.50181 13.8333 5.83333 13.8333ZM17.0833 17.1667H2.91667V3.00001C2.91667 2.77899 2.82887 2.56703 2.67259 2.41075C2.51631 2.25447 2.30435 2.16667 2.08333 2.16667C1.86232 2.16667 1.65036 2.25447 1.49408 2.41075C1.3378 2.56703 1.25 2.77899 1.25 3.00001V18C1.25 18.221 1.3378 18.433 1.49408 18.5893C1.65036 18.7455 1.86232 18.8333 2.08333 18.8333H17.0833C17.3043 18.8333 17.5163 18.7455 17.6726 18.5893C17.8289 18.433 17.9167 18.221 17.9167 18C17.9167 17.779 17.8289 17.567 17.6726 17.4107C17.5163 17.2545 17.3043 17.1667 17.0833 17.1667Z" fill="white"/>
</g>
</svg>
