<svg width="18" height="17" viewBox="0 0 18 17" fill="none" xmlns="http://www.w3.org/2000/svg">
<path d="M8.40842 11.2417C8.37258 11.2813 8.33919 11.323 8.30842 11.3667C8.27688 11.4131 8.25166 11.4636 8.23342 11.5167C8.20939 11.5639 8.19254 11.6145 8.18342 11.6667C8.17933 11.7221 8.17933 11.7778 8.18342 11.8333C8.1806 11.9426 8.20343 12.0511 8.25009 12.15C8.28751 12.2534 8.34722 12.3473 8.42499 12.4251C8.50276 12.5029 8.59667 12.5626 8.70009 12.6C8.79984 12.6441 8.90769 12.6669 9.01675 12.6669C9.12581 12.6669 9.23367 12.6441 9.33342 12.6C9.43683 12.5626 9.53075 12.5029 9.60851 12.4251C9.68628 12.3473 9.74599 12.2534 9.78342 12.15C9.82042 12.0487 9.8374 11.9411 9.83342 11.8333C9.83405 11.7237 9.81303 11.6149 9.77156 11.5134C9.73009 11.4119 9.66899 11.3195 9.59175 11.2417C9.51428 11.1636 9.42212 11.1016 9.32057 11.0592C9.21902 11.0169 9.1101 10.9952 9.00008 10.9952C8.89008 10.9952 8.78115 11.0169 8.6796 11.0592C8.57805 11.1016 8.48589 11.1636 8.40842 11.2417ZM9.00008 0.166656C7.35191 0.166656 5.74074 0.655398 4.37033 1.57108C2.99992 2.48675 1.93182 3.78824 1.30109 5.31096C0.670359 6.83368 0.505331 8.50923 0.826874 10.1257C1.14842 11.7423 1.94209 13.2271 3.10753 14.3925C4.27297 15.558 5.75782 16.3517 7.37433 16.6732C8.99084 16.9947 10.6664 16.8297 12.1891 16.199C13.7118 15.5683 15.0133 14.5002 15.929 13.1297C16.8447 11.7593 17.3334 10.1482 17.3334 8.49999C17.3334 7.40564 17.1179 6.32201 16.6991 5.31096C16.2803 4.29991 15.6665 3.38125 14.8926 2.60743C14.1188 1.83361 13.2002 1.21978 12.1891 0.800994C11.1781 0.382205 10.0944 0.166656 9.00008 0.166656ZM9.00008 15.1667C7.68154 15.1667 6.39261 14.7757 5.29628 14.0431C4.19996 13.3106 3.34547 12.2694 2.84089 11.0512C2.3363 9.83304 2.20428 8.49259 2.46152 7.19939C2.71875 5.90618 3.35369 4.7183 4.28604 3.78594C5.21839 2.85359 6.40628 2.21866 7.69948 1.96142C8.99269 1.70419 10.3331 1.83621 11.5513 2.34079C12.7695 2.84538 13.8107 3.69986 14.5432 4.79619C15.2758 5.89252 15.6668 7.18145 15.6668 8.49999C15.6668 10.2681 14.9644 11.9638 13.7141 13.214C12.4639 14.4643 10.7682 15.1667 9.00008 15.1667ZM9.00008 4.33332C8.56097 4.33304 8.12953 4.44842 7.74918 4.66786C7.36882 4.88729 7.05297 5.20304 6.83342 5.58332C6.77312 5.67817 6.73264 5.78424 6.7144 5.89514C6.69616 6.00604 6.70054 6.11948 6.72728 6.22865C6.75401 6.33781 6.80256 6.44044 6.86999 6.53035C6.93742 6.62027 7.02234 6.69562 7.11964 6.75186C7.21695 6.80811 7.32463 6.84409 7.4362 6.85764C7.54777 6.87119 7.66093 6.86204 7.76887 6.83072C7.87681 6.79941 7.9773 6.74658 8.06429 6.67542C8.15129 6.60426 8.22299 6.51624 8.27509 6.41666C8.34851 6.28949 8.45423 6.18397 8.58154 6.11081C8.70886 6.03764 8.85324 5.99941 9.00008 5.99999C9.2211 5.99999 9.43306 6.08779 9.58934 6.24407C9.74562 6.40035 9.83342 6.61231 9.83342 6.83332C9.83342 7.05434 9.74562 7.2663 9.58934 7.42258C9.43306 7.57886 9.2211 7.66666 9.00008 7.66666C8.77907 7.66666 8.56711 7.75445 8.41083 7.91073C8.25455 8.06702 8.16675 8.27898 8.16675 8.49999V9.33332C8.16675 9.55434 8.25455 9.7663 8.41083 9.92258C8.56711 10.0789 8.77907 10.1667 9.00008 10.1667C9.2211 10.1667 9.43306 10.0789 9.58934 9.92258C9.74562 9.7663 9.83342 9.55434 9.83342 9.33332V9.18332C10.3846 8.98334 10.8479 8.59601 11.1424 8.08905C11.4369 7.58208 11.5439 6.98773 11.4446 6.4099C11.3453 5.83206 11.0461 5.3075 10.5992 4.92792C10.1524 4.54833 9.58637 4.33787 9.00008 4.33332Z" fill="white"/>
</svg>
