<svg width="18" height="18" viewBox="0 0 18 18" fill="none" xmlns="http://www.w3.org/2000/svg">
<path d="M8.11662 4.06668C8.40892 4.02187 8.70423 3.99959 8.99995 4.00001C11.65 4.00001 14.1416 5.90834 15.5916 9.00001C15.3699 9.4705 15.1194 9.92692 14.8416 10.3667C14.7534 10.5032 14.7071 10.6625 14.7083 10.825C14.7101 11.0069 14.7714 11.1831 14.8828 11.3269C14.9942 11.4707 15.1496 11.5741 15.3252 11.6213C15.5009 11.6685 15.6871 11.6569 15.8556 11.5884C16.0241 11.5199 16.1655 11.3981 16.2583 11.2417C16.6466 10.6316 16.9838 9.99055 17.2666 9.32501C17.3113 9.22103 17.3344 9.10903 17.3344 8.99584C17.3344 8.88266 17.3113 8.77066 17.2666 8.66668C15.5833 4.75835 12.4166 2.33335 8.99995 2.33335C8.60884 2.33137 8.21835 2.36484 7.83328 2.43335C7.72385 2.45195 7.61915 2.49193 7.52516 2.55099C7.43118 2.61006 7.34975 2.68706 7.28552 2.7776C7.22129 2.86813 7.17553 2.97043 7.15084 3.07866C7.12615 3.18688 7.12301 3.29891 7.14162 3.40835C7.16022 3.51778 7.2002 3.62248 7.25926 3.71646C7.31833 3.81045 7.39533 3.89188 7.48587 3.95611C7.57641 4.02033 7.67871 4.0661 7.78693 4.09079C7.89515 4.11548 8.00718 4.11862 8.11662 4.10001V4.06668ZM2.09162 0.908345C2.01392 0.830647 1.92168 0.769013 1.82016 0.726962C1.71864 0.684912 1.60983 0.663269 1.49995 0.663269C1.39007 0.663269 1.28126 0.684912 1.17974 0.726962C1.07822 0.769013 0.985983 0.830647 0.908284 0.908345C0.751365 1.06527 0.663208 1.27809 0.663208 1.50001C0.663208 1.72193 0.751365 1.93476 0.908284 2.09168L3.49162 4.66668C2.31293 5.80129 1.37483 7.16167 0.733284 8.66668C0.687398 8.77182 0.663714 8.8853 0.663714 9.00001C0.663714 9.11473 0.687398 9.22821 0.733284 9.33334C2.41662 13.2417 5.58328 15.6667 8.99995 15.6667C10.4975 15.6563 11.9598 15.2104 13.2083 14.3833L15.9083 17.0917C15.9858 17.1698 16.0779 17.2318 16.1795 17.2741C16.281 17.3164 16.3899 17.3382 16.5 17.3382C16.61 17.3382 16.7189 17.3164 16.8204 17.2741C16.922 17.2318 17.0141 17.1698 17.0916 17.0917C17.1697 17.0142 17.2317 16.922 17.274 16.8205C17.3163 16.7189 17.3381 16.61 17.3381 16.5C17.3381 16.39 17.3163 16.2811 17.274 16.1795C17.2317 16.078 17.1697 15.9858 17.0916 15.9083L2.09162 0.908345ZM7.39162 8.56668L9.43328 10.6083C9.29244 10.6487 9.14646 10.6684 8.99995 10.6667C8.55792 10.6667 8.134 10.4911 7.82144 10.1785C7.50888 9.86596 7.33328 9.44204 7.33328 9.00001C7.33158 8.8535 7.35123 8.70752 7.39162 8.56668ZM8.99995 14C6.34995 14 3.85828 12.0917 2.41662 9.00001C2.95502 7.81147 3.71918 6.73883 4.66662 5.84168L6.14162 7.33334C5.79516 7.96568 5.66307 8.6933 5.76517 9.40706C5.86727 10.1208 6.19805 10.7822 6.70789 11.2921C7.21773 11.8019 7.87914 12.1327 8.5929 12.2348C9.30666 12.3369 10.0343 12.2048 10.6666 11.8583L11.9916 13.1667C11.0842 13.7007 10.0528 13.988 8.99995 14Z" fill="#535260"/>
</svg>
