<svg width="17" height="18" viewBox="0 0 17 18" fill="none" xmlns="http://www.w3.org/2000/svg">
<path d="M8.50008 4.83329C8.27907 4.83329 8.06711 4.92109 7.91083 5.07737C7.75455 5.23365 7.66675 5.44561 7.66675 5.66663V8.99996C7.66675 9.22097 7.75455 9.43293 7.91083 9.58922C8.06711 9.7455 8.27907 9.83329 8.50008 9.83329C8.7211 9.83329 8.93306 9.7455 9.08934 9.58922C9.24562 9.43293 9.33342 9.22097 9.33342 8.99996V5.66663C9.33342 5.44561 9.24562 5.23365 9.08934 5.07737C8.93306 4.92109 8.7211 4.83329 8.50008 4.83329ZM9.26675 12.0166C9.24851 11.9635 9.22329 11.9131 9.19175 11.8666L9.09175 11.7416C8.97457 11.626 8.82575 11.5477 8.6641 11.5165C8.50244 11.4854 8.33518 11.5028 8.18342 11.5666C8.08243 11.6088 7.98942 11.668 7.90842 11.7416C7.83118 11.8195 7.77008 11.9118 7.72861 12.0134C7.68714 12.1149 7.66612 12.2236 7.66675 12.3333C7.66807 12.4422 7.69072 12.5498 7.73342 12.65C7.77084 12.7534 7.83056 12.8473 7.90832 12.9251C7.98609 13.0028 8.08001 13.0625 8.18342 13.1C8.28317 13.144 8.39103 13.1668 8.50008 13.1668C8.60914 13.1668 8.717 13.144 8.81675 13.1C8.92017 13.0625 9.01408 13.0028 9.09185 12.9251C9.16961 12.8473 9.22933 12.7534 9.26675 12.65C9.30945 12.5498 9.3321 12.4422 9.33342 12.3333C9.33751 12.2778 9.33751 12.2221 9.33342 12.1666C9.31907 12.1135 9.29658 12.0629 9.26675 12.0166ZM8.50008 0.666626C6.85191 0.666626 5.24074 1.15537 3.87033 2.07105C2.49992 2.98672 1.43182 4.28821 0.801089 5.81093C0.170359 7.33365 0.00533096 9.0092 0.326874 10.6257C0.648418 12.2422 1.44209 13.7271 2.60753 14.8925C3.77297 16.058 5.25782 16.8516 6.87433 17.1732C8.49084 17.4947 10.1664 17.3297 11.6891 16.699C13.2118 16.0682 14.5133 15.0001 15.429 13.6297C16.3447 12.2593 16.8334 10.6481 16.8334 8.99996C16.8334 7.90561 16.6179 6.82198 16.1991 5.81093C15.7803 4.79988 15.1665 3.88122 14.3926 3.1074C13.6188 2.33358 12.7002 1.71975 11.6891 1.30096C10.6781 0.882174 9.59443 0.666626 8.50008 0.666626ZM8.50008 15.6666C7.18154 15.6666 5.89261 15.2756 4.79628 14.5431C3.69996 13.8105 2.84547 12.7694 2.34089 11.5512C1.8363 10.333 1.70428 8.99256 1.96152 7.69936C2.21875 6.40615 2.85369 5.21826 3.78604 4.28591C4.71839 3.35356 5.90628 2.71863 7.19948 2.46139C8.49269 2.20416 9.83313 2.33618 11.0513 2.84076C12.2695 3.34535 13.3107 4.19983 14.0432 5.29616C14.7758 6.39249 15.1668 7.68142 15.1668 8.99996C15.1668 10.7681 14.4644 12.4638 13.2141 13.714C11.9639 14.9642 10.2682 15.6666 8.50008 15.6666Z" fill="#8C8B98"/>
</svg>
