<svg width="18" height="18" viewBox="0 0 18 18" fill="none" xmlns="http://www.w3.org/2000/svg">
<path d="M9.00001 0.666664C7.90566 0.666664 6.82203 0.882212 5.81098 1.301C4.79993 1.71979 3.88128 2.33362 3.10745 3.10744C1.54465 4.67024 0.666677 6.78986 0.666677 9C0.659392 10.9243 1.32567 12.7904 2.55001 14.275L0.883344 15.9417C0.767712 16.0589 0.689382 16.2077 0.658237 16.3693C0.627092 16.531 0.644528 16.6982 0.708344 16.85C0.777559 16.9999 0.889764 17.1259 1.03072 17.212C1.17167 17.298 1.33501 17.3403 1.50001 17.3333H9.00001C11.2101 17.3333 13.3298 16.4554 14.8926 14.8926C16.4554 13.3298 17.3333 11.2101 17.3333 9C17.3333 6.78986 16.4554 4.67024 14.8926 3.10744C13.3298 1.54464 11.2101 0.666664 9.00001 0.666664ZM9.00001 15.6667H3.50834L4.28334 14.8917C4.43855 14.7355 4.52567 14.5243 4.52567 14.3042C4.52567 14.084 4.43855 13.8728 4.28334 13.7167C3.19217 12.6267 2.51266 11.1921 2.36059 9.65732C2.20852 8.12254 2.5933 6.5825 3.44937 5.2996C4.30544 4.0167 5.57984 3.0703 7.05544 2.62164C8.53104 2.17299 10.1166 2.24983 11.5419 2.83909C12.9672 3.42835 14.1441 4.49356 14.872 5.85324C15.6 7.21292 15.8341 8.78295 15.5343 10.2958C15.2345 11.8087 14.4194 13.1709 13.228 14.1502C12.0365 15.1295 10.5423 15.6655 9.00001 15.6667Z" fill="black"/>
</svg>
