<svg width="20" height="21" viewBox="0 0 20 21" fill="none" xmlns="http://www.w3.org/2000/svg">
<g opacity="0.5">
<path d="M17.5001 9.66667H7.84175L9.75842 7.75833C9.83611 7.68063 9.89775 7.58839 9.9398 7.48687C9.98185 7.38536 10.0035 7.27655 10.0035 7.16667C10.0035 7.05678 9.98185 6.94798 9.9398 6.84646C9.89775 6.74494 9.83611 6.6527 9.75842 6.575C9.68072 6.4973 9.58847 6.43567 9.48696 6.39362C9.38544 6.35157 9.27663 6.32992 9.16675 6.32992C9.05687 6.32992 8.94806 6.35157 8.84654 6.39362C8.74502 6.43567 8.65278 6.4973 8.57508 6.575L5.24175 9.90833C5.16588 9.98759 5.10641 10.081 5.06675 10.1833C4.9834 10.3862 4.9834 10.6138 5.06675 10.8167C5.10641 10.919 5.16588 11.0124 5.24175 11.0917L8.57508 14.425C8.65255 14.5031 8.74472 14.5651 8.84627 14.6074C8.94782 14.6497 9.05674 14.6715 9.16675 14.6715C9.27676 14.6715 9.38568 14.6497 9.48723 14.6074C9.58878 14.5651 9.68095 14.5031 9.75842 14.425C9.83652 14.3475 9.89852 14.2554 9.94082 14.1538C9.98313 14.0523 10.0049 13.9433 10.0049 13.8333C10.0049 13.7233 9.98313 13.6144 9.94082 13.5129C9.89852 13.4113 9.83652 13.3191 9.75842 13.2417L7.84175 11.3333H17.5001C17.7211 11.3333 17.9331 11.2455 18.0893 11.0893C18.2456 10.933 18.3334 10.721 18.3334 10.5C18.3334 10.279 18.2456 10.067 18.0893 9.91074C17.9331 9.75446 17.7211 9.66667 17.5001 9.66667ZM2.50008 3C2.27907 3 2.06711 3.0878 1.91083 3.24408C1.75455 3.40036 1.66675 3.61232 1.66675 3.83333V17.1667C1.66675 17.3877 1.75455 17.5996 1.91083 17.7559C2.06711 17.9122 2.27907 18 2.50008 18C2.7211 18 2.93306 17.9122 3.08934 17.7559C3.24562 17.5996 3.33341 17.3877 3.33341 17.1667V3.83333C3.33341 3.61232 3.24562 3.40036 3.08934 3.24408C2.93306 3.0878 2.7211 3 2.50008 3Z" fill="white"/>
</g>
</svg>
