<svg width="8" height="12" viewBox="0 0 8 12" fill="none" xmlns="http://www.w3.org/2000/svg">
<path d="M1.07593 6.63684L5.7926 11.3452C5.87007 11.4233 5.96224 11.4853 6.06379 11.5276C6.16534 11.5699 6.27426 11.5917 6.38427 11.5917C6.49428 11.5917 6.6032 11.5699 6.70475 11.5276C6.8063 11.4853 6.89847 11.4233 6.97593 11.3452C7.13114 11.189 7.21826 10.9778 7.21826 10.7577C7.21826 10.5375 7.13114 10.3263 6.97593 10.1702L2.85093 6.00351L6.97593 1.87851C7.13114 1.72237 7.21826 1.51116 7.21826 1.29101C7.21826 1.07085 7.13114 0.859645 6.97593 0.703509C6.89876 0.624769 6.80672 0.562127 6.70516 0.519214C6.60359 0.476299 6.49452 0.453968 6.38427 0.45351C6.27401 0.453968 6.16494 0.476299 6.06338 0.519214C5.96182 0.562127 5.86978 0.624769 5.7926 0.703509L1.07593 5.41184C0.991347 5.48988 0.923841 5.58459 0.877667 5.69C0.831495 5.79542 0.807658 5.90926 0.807658 6.02434C0.807658 6.13943 0.831495 6.25326 0.877667 6.35868C0.923841 6.4641 0.991347 6.55881 1.07593 6.63684Z" fill="#535260"/>
</svg>
