<svg width="16" height="18" viewBox="0 0 16 18" fill="none" xmlns="http://www.w3.org/2000/svg">
<path d="M13 2.7333C11.6739 1.40722 9.87539 0.662231 8.00002 0.662231C6.12466 0.662231 4.32611 1.40722 3.00002 2.7333C1.67394 4.05938 0.928955 5.85794 0.928955 7.7333C0.928955 9.60866 1.67394 11.4072 3.00002 12.7333L7.39169 17.1333C7.46916 17.2114 7.56133 17.2734 7.66288 17.3157C7.76442 17.358 7.87335 17.3798 7.98336 17.3798C8.09337 17.3798 8.20229 17.358 8.30384 17.3157C8.40539 17.2734 8.49755 17.2114 8.57502 17.1333L13 12.6916C14.3206 11.3711 15.0624 9.58001 15.0624 7.71247C15.0624 5.84492 14.3206 4.05386 13 2.7333ZM11.8084 11.5L8.00002 15.325L4.19169 11.5C3.43931 10.7469 2.92709 9.78767 2.71977 8.74354C2.51245 7.69941 2.61935 6.61725 3.02694 5.63387C3.43454 4.65048 4.12454 3.81001 5.00971 3.2187C5.89489 2.62739 6.93551 2.31178 8.00002 2.31178C9.06454 2.31178 10.1052 2.62739 10.9903 3.2187C11.8755 3.81001 12.5655 4.65048 12.9731 5.63387C13.3807 6.61725 13.4876 7.69941 13.2803 8.74354C13.073 9.78767 12.5607 10.7469 11.8084 11.5ZM5.50002 5.17497C4.82728 5.84978 4.44952 6.76377 4.44952 7.71663C4.44952 8.66949 4.82728 9.58349 5.50002 10.2583C5.99982 10.759 6.63635 11.1009 7.32973 11.2411C8.02312 11.3814 8.74248 11.3138 9.39758 11.0468C10.0527 10.7797 10.6143 10.3252 11.0121 9.74017C11.4098 9.15515 11.626 8.46569 11.6334 7.7583C11.6371 7.28597 11.5461 6.81768 11.3658 6.38112C11.1854 5.94456 10.9194 5.5486 10.5834 5.21663C10.2531 4.87878 9.85926 4.60958 9.42454 4.42452C8.98983 4.23946 8.52281 4.1422 8.05036 4.13832C7.57791 4.13445 7.10935 4.22405 6.67167 4.40196C6.23398 4.57986 5.83579 4.84257 5.50002 5.17497ZM9.40836 9.07497C9.09256 9.39558 8.6752 9.59655 8.22763 9.64351C7.78006 9.69047 7.33008 9.5805 6.95461 9.33241C6.57915 9.08431 6.30152 8.7135 6.1692 8.28337C6.03687 7.85324 6.05806 7.3905 6.22915 6.97426C6.40024 6.55803 6.71061 6.21415 7.10718 6.00141C7.50375 5.78868 7.9619 5.72031 8.4033 5.80798C8.84471 5.89565 9.24195 6.13393 9.52711 6.48207C9.81228 6.83022 9.96766 7.26661 9.96669 7.71663C9.95457 8.23102 9.73877 8.71957 9.36669 9.07497H9.40836Z" fill="#C5C4CF"/>
</svg>
