<svg width="26" height="36" viewBox="0 0 26 36" fill="none" xmlns="http://www.w3.org/2000/svg">
<path d="M6.97895 9.57722C6.34649 10.1375 5.67349 10.4134 5.4758 10.1929C5.27755 9.97289 5.62907 9.33895 6.26098 8.77955C6.89369 8.22021 7.56682 7.94353 7.76494 8.16389C7.96288 8.38407 7.61135 9.01855 6.97895 9.57722ZM13.2338 9.25566C16.6845 6.62896 15.88 4.23028 15.88 4.23028C14.9598 4.68689 14.7292 4.11623 14.7292 4.11623C15.1891 0.804467 13.2336 0 13.2336 0C14.1535 1.70842 4.37517 6.39995 3.05039 7.3141C1.72576 8.22813 3.05039 9.59816 3.05039 9.59816L3.10976 10.3976C-0.916121 12.1108 0.119517 13.8237 0.119517 13.8237L1.49899 14.509V15.4225L3.05396 17.7768C3.04327 17.6811 3.02435 17.5884 3.02435 17.4899C3.02435 16.0596 4.19188 14.9016 5.63222 14.9016C7.07218 14.9016 8.2394 16.0598 8.2394 17.4899C8.2394 18.9186 7.07218 20.0785 5.63222 20.0785C5.15992 20.0785 4.72272 19.9436 4.34104 19.7262L6.1007 22.3895C6.1007 22.3895 8.05636 19.7621 9.66717 18.9634C11.2782 18.1645 13.2733 16.8081 13.2733 16.8081L15.0739 15.1944C15.8792 7.08637 9.78274 11.8819 13.2338 9.25566Z" fill="#FFB618"/>
<path d="M12.8134 18.763C12.8134 18.763 13.3885 21.3327 15.1718 22.0179C16.9548 22.7031 18.2493 23.8862 17.7315 27.0209C17.7315 27.0209 24.7711 24.0604 24.3857 21.8787C24.0671 20.0746 25.066 17.3216 16.4141 15.9364C16.9965 15.0056 11.9322 18.6756 12.8134 18.763Z" fill="#FFB618"/>
<path d="M11.9066 19.2767C11.9066 19.2767 12.1225 21.4181 13.3309 22.3603C14.5392 23.3027 18.6577 24.8971 16.4143 27.6381C14.1706 30.3792 10.6566 32.8772 11.2603 35.6276C11.8643 38.378 0.861971 25.1868 11.9066 19.2767Z" fill="#FFB618"/>
<path d="M5.65113 23.2167C5.65113 23.2167 4.18405 28.3137 7.89434 33.5386C7.89434 33.5386 2.9743 30.889 1.94085 26.6429C0.905487 22.3888 3.32156 18.1633 5.65113 23.2167Z" fill="#FFB618"/>
<path d="M14.5388 9.68371C14.5388 9.68371 27.5678 7.2853 25.8423 19.277C25.8423 19.277 20.4923 13.881 16.0919 15.0801C16.0919 15.0801 16.5233 11.3114 14.5388 9.68371Z" fill="#FFB618"/>
<path d="M15.1716 8.51829C15.1716 8.51829 16.8973 7.19934 17.2427 4.45837C17.2427 4.45837 23.225 6.51481 25.0659 10.3972C25.0659 10.3972 18.853 7.32459 15.1716 8.51829Z" fill="#FFB618"/>
</svg>
