<svg width="18" height="14" viewBox="0 0 18 14" fill="none" xmlns="http://www.w3.org/2000/svg">
<path d="M14.8334 0.333374H3.16669C2.50365 0.333374 1.86776 0.596766 1.39892 1.06561C0.930079 1.53445 0.666687 2.17033 0.666687 2.83337V11.1667C0.666687 11.8297 0.930079 12.4656 1.39892 12.9345C1.86776 13.4033 2.50365 13.6667 3.16669 13.6667H14.8334C15.4964 13.6667 16.1323 13.4033 16.6011 12.9345C17.07 12.4656 17.3334 11.8297 17.3334 11.1667V2.83337C17.3334 2.17033 17.07 1.53445 16.6011 1.06561C16.1323 0.596766 15.4964 0.333374 14.8334 0.333374ZM3.16669 2.00004H14.8334C15.0544 2.00004 15.2663 2.08784 15.4226 2.24412C15.5789 2.4004 15.6667 2.61236 15.6667 2.83337L9.00002 6.90004L2.33335 2.83337C2.33335 2.61236 2.42115 2.4004 2.57743 2.24412C2.73371 2.08784 2.94567 2.00004 3.16669 2.00004ZM15.6667 11.1667C15.6667 11.3877 15.5789 11.5997 15.4226 11.756C15.2663 11.9122 15.0544 12 14.8334 12H3.16669C2.94567 12 2.73371 11.9122 2.57743 11.756C2.42115 11.5997 2.33335 11.3877 2.33335 11.1667V4.73337L8.56669 8.54171C8.69337 8.61485 8.83707 8.65335 8.98335 8.65335C9.12963 8.65335 9.27334 8.61485 9.40002 8.54171L15.6667 4.73337V11.1667Z" fill="#C5C4CF"/>
</svg>
