<svg width="18" height="17" viewBox="0 0 18 17" fill="none" xmlns="http://www.w3.org/2000/svg">
<path d="M9.00002 0.16667C7.72326 0.16436 6.46304 0.455452 5.31664 1.01748C4.17023 1.57951 3.1683 2.39744 2.38817 3.40814C1.60804 4.41884 1.07057 5.59528 0.817267 6.84667C0.563959 8.09805 0.601578 9.3909 0.92722 10.6254C1.25286 11.86 1.85782 13.0032 2.6954 13.9668C3.53298 14.9304 4.58078 15.6887 5.75792 16.1831C6.93507 16.6776 8.21008 16.8949 9.48454 16.8183C10.759 16.7418 11.9988 16.3734 13.1084 15.7417H13.1667H13.2084C14.8127 14.8284 16.0684 13.4081 16.7783 11.7039C17.4882 9.99976 17.6121 8.10808 17.1305 6.32586C16.649 4.54364 15.5893 2.97178 14.1177 1.85702C12.6461 0.742248 10.8461 0.14769 9.00002 0.16667ZM9.83335 1.89167C11.3 2.07766 12.6633 2.74592 13.7087 3.79132C14.7541 4.83673 15.4224 6.19999 15.6084 7.66667H9.83335V1.89167ZM9.00002 15.1667C7.31211 15.1552 5.6914 14.5038 4.46497 13.344C3.23854 12.1843 2.49769 10.6025 2.39194 8.91784C2.28619 7.2332 2.8234 5.57116 3.89517 4.26714C4.96694 2.96311 6.49347 2.11418 8.16669 1.89167V8.5C8.16997 8.59977 8.18968 8.69831 8.22502 8.79167V8.85834V8.91667L11.5584 14.6417C10.7498 14.9877 9.87951 15.1663 9.00002 15.1667ZM13.025 13.8L10.4417 9.33334H15.6084C15.4962 10.2122 15.2099 11.0598 14.7663 11.8267C14.3228 12.5937 13.7308 13.2645 13.025 13.8Z" fill="white"/>
</svg>
