<svg width="20" height="21" viewBox="0 0 20 21" fill="none" xmlns="http://www.w3.org/2000/svg">
<g opacity="0.5">
<path d="M15.8334 3.83334H4.16675C3.50371 3.83334 2.86782 4.09674 2.39898 4.56558C1.93014 5.03442 1.66675 5.6703 1.66675 6.33334V14.6667C1.66675 15.3297 1.93014 15.9656 2.39898 16.4344C2.86782 16.9033 3.50371 17.1667 4.16675 17.1667H15.8334C16.4965 17.1667 17.1323 16.9033 17.6012 16.4344C18.07 15.9656 18.3334 15.3297 18.3334 14.6667V6.33334C18.3334 5.6703 18.07 5.03442 17.6012 4.56558C17.1323 4.09674 16.4965 3.83334 15.8334 3.83334ZM4.16675 5.50001H15.8334C16.0544 5.50001 16.2664 5.58781 16.4227 5.74409C16.579 5.90037 16.6667 6.11233 16.6667 6.33334L10.0001 10.4L3.33341 6.33334C3.33341 6.11233 3.42121 5.90037 3.57749 5.74409C3.73377 5.58781 3.94573 5.50001 4.16675 5.50001ZM16.6667 14.6667C16.6667 14.8877 16.579 15.0997 16.4227 15.2559C16.2664 15.4122 16.0544 15.5 15.8334 15.5H4.16675C3.94573 15.5 3.73377 15.4122 3.57749 15.2559C3.42121 15.0997 3.33341 14.8877 3.33341 14.6667V8.23334L9.56675 12.0417C9.69343 12.1148 9.83713 12.1533 9.98341 12.1533C10.1297 12.1533 10.2734 12.1148 10.4001 12.0417L16.6667 8.23334V14.6667Z" fill="white"/>
</g>
</svg>
