<svg width="20" height="20" viewBox="0 0 20 20" fill="none" xmlns="http://www.w3.org/2000/svg">
<g opacity="0.5">
<path d="M16.0167 5.00001H10.5501C10.3291 5.00001 10.1171 5.08781 9.96082 5.24409C9.80454 5.40037 9.71674 5.61233 9.71674 5.83334C9.71674 6.05436 9.80454 6.26632 9.96082 6.4226C10.1171 6.57888 10.3291 6.66668 10.5501 6.66668H16.0167C16.1891 6.66668 16.3545 6.73516 16.4764 6.85706C16.5983 6.97896 16.6667 7.14429 16.6667 7.31668V7.96668H13.5167C13.2957 7.96668 13.0838 8.05448 12.9275 8.21076C12.7712 8.36704 12.6834 8.579 12.6834 8.80001C12.6834 9.02103 12.7712 9.23299 12.9275 9.38927C13.0838 9.54555 13.2957 9.63334 13.5167 9.63334H15.4917L14.9084 10.2083C14.8303 10.2858 14.7683 10.378 14.726 10.4795C14.6837 10.5811 14.6619 10.69 14.6619 10.8C14.6619 10.91 14.6837 11.0189 14.726 11.1205C14.7683 11.222 14.8303 11.3142 14.9084 11.3917C14.9859 11.4698 15.078 11.5318 15.1796 11.5741C15.2811 11.6164 15.3901 11.6382 15.5001 11.6382C15.6101 11.6382 15.719 11.6164 15.8206 11.5741C15.9221 11.5318 16.0143 11.4698 16.0917 11.3917L17.6584 9.82501C17.8501 9.63399 18.0029 9.40759 18.1084 9.15834V9.07501C18.2466 8.7974 18.3233 8.49328 18.3334 8.18334V7.35001C18.3367 7.04329 18.2793 6.73895 18.1644 6.45452C18.0496 6.17009 17.8796 5.9112 17.6643 5.69276C17.4489 5.47432 17.1925 5.30065 16.9097 5.18175C16.627 5.06286 16.3235 5.00109 16.0167 5.00001ZM3.09174 1.90835C3.01404 1.83065 2.9218 1.76901 2.82028 1.72696C2.71876 1.68491 2.60996 1.66327 2.50007 1.66327C2.39019 1.66327 2.28138 1.68491 2.17987 1.72696C2.07835 1.76901 1.98611 1.83065 1.90841 1.90835C1.75149 2.06527 1.66333 2.27809 1.66333 2.50001C1.66333 2.72193 1.75149 2.93476 1.90841 3.09168L4.28341 5.45835C3.98825 5.66981 3.748 5.94885 3.58273 6.27214C3.41746 6.59544 3.33197 6.95359 3.33341 7.31668V8.15001C3.33365 8.46637 3.40185 8.77898 3.53341 9.06668V9.11668C3.63975 9.36791 3.7924 9.59689 3.98341 9.79168L8.49174 14.2917V17.5C8.49146 17.6416 8.52727 17.781 8.5958 17.9049C8.66433 18.0289 8.76331 18.1333 8.88341 18.2083C9.01602 18.2905 9.16905 18.3338 9.32507 18.3333C9.45552 18.3326 9.58397 18.3012 9.70007 18.2417L12.6667 16.7583C12.8042 16.6891 12.9197 16.5831 13.0006 16.4522C13.0815 16.3213 13.1246 16.1706 13.1251 16.0167V14.35L16.8834 18.1167C16.9609 18.1948 17.053 18.2568 17.1546 18.2991C17.2561 18.3414 17.3651 18.3632 17.4751 18.3632C17.5851 18.3632 17.694 18.3414 17.7956 18.2991C17.8971 18.2568 17.9893 18.1948 18.0667 18.1167C18.1448 18.0392 18.2068 17.947 18.2491 17.8455C18.2915 17.7439 18.3132 17.635 18.3132 17.525C18.3132 17.415 18.2915 17.3061 18.2491 17.2045C18.2068 17.103 18.1448 17.0108 18.0667 16.9333L3.09174 1.90835ZM5.00007 7.31668C4.99907 7.18588 5.03858 7.05799 5.11319 6.95055C5.18779 6.84312 5.29383 6.76142 5.41674 6.71668L5.49174 6.66668L6.79174 7.96668H5.00007V7.31668ZM11.7251 13.3917C11.6478 13.4695 11.5867 13.5619 11.5453 13.6634C11.5038 13.765 11.4828 13.8737 11.4834 13.9833V15.5L10.1834 16.15V13.9833C10.184 13.8737 10.163 13.765 10.1215 13.6634C10.0801 13.5619 10.019 13.4695 9.94174 13.3917L6.17507 9.63334H8.45841L11.9751 13.15L11.7251 13.3917Z" fill="#535260"/>
</g>
</svg>
