<svg width="20" height="21" viewBox="0 0 20 21" fill="none" xmlns="http://www.w3.org/2000/svg">
<path d="M14.1666 3.83332H13.3333C13.3333 3.3913 13.1577 2.96737 12.8451 2.65481C12.5325 2.34225 12.1086 2.16666 11.6666 2.16666H8.33325C7.89122 2.16666 7.4673 2.34225 7.15474 2.65481C6.84218 2.96737 6.66659 3.3913 6.66659 3.83332H5.83325C5.17021 3.83332 4.53433 4.09672 4.06549 4.56556C3.59664 5.0344 3.33325 5.67028 3.33325 6.33332V16.3333C3.33325 16.9964 3.59664 17.6322 4.06549 18.1011C4.53433 18.5699 5.17021 18.8333 5.83325 18.8333H14.1666C14.8296 18.8333 15.4655 18.5699 15.9344 18.1011C16.4032 17.6322 16.6666 16.9964 16.6666 16.3333V6.33332C16.6666 5.67028 16.4032 5.0344 15.9344 4.56556C15.4655 4.09672 14.8296 3.83332 14.1666 3.83332ZM8.33325 3.83332H11.6666V4.66666V5.49999H8.33325V3.83332ZM14.9999 16.3333C14.9999 16.5543 14.9121 16.7663 14.7558 16.9226C14.5996 17.0789 14.3876 17.1667 14.1666 17.1667H5.83325C5.61224 17.1667 5.40028 17.0789 5.244 16.9226C5.08772 16.7663 4.99992 16.5543 4.99992 16.3333V6.33332C4.99992 6.11231 5.08772 5.90035 5.244 5.74407C5.40028 5.58779 5.61224 5.49999 5.83325 5.49999H6.66659C6.66659 5.94202 6.84218 6.36594 7.15474 6.6785C7.4673 6.99106 7.89122 7.16666 8.33325 7.16666H11.6666C12.1086 7.16666 12.5325 6.99106 12.8451 6.6785C13.1577 6.36594 13.3333 5.94202 13.3333 5.49999H14.1666C14.3876 5.49999 14.5996 5.58779 14.7558 5.74407C14.9121 5.90035 14.9999 6.11231 14.9999 6.33332V16.3333Z" fill="white"/>
</svg>
