<svg width="12" height="11" viewBox="0 0 12 11" fill="none" xmlns="http://www.w3.org/2000/svg">
<path d="M10.6667 4.83333H6.66675V0.833334C6.66675 0.656523 6.59651 0.486953 6.47149 0.361929C6.34646 0.236905 6.17689 0.166667 6.00008 0.166667C5.82327 0.166667 5.6537 0.236905 5.52868 0.361929C5.40365 0.486953 5.33341 0.656523 5.33341 0.833334V4.83333H1.33341C1.1566 4.83333 0.987035 4.90357 0.86201 5.0286C0.736986 5.15362 0.666748 5.32319 0.666748 5.5C0.666748 5.67681 0.736986 5.84638 0.86201 5.9714C0.987035 6.09643 1.1566 6.16667 1.33341 6.16667H5.33341V10.1667C5.33341 10.3435 5.40365 10.513 5.52868 10.6381C5.6537 10.7631 5.82327 10.8333 6.00008 10.8333C6.17689 10.8333 6.34646 10.7631 6.47149 10.6381C6.59651 10.513 6.66675 10.3435 6.66675 10.1667V6.16667H10.6667C10.8436 6.16667 11.0131 6.09643 11.1382 5.9714C11.2632 5.84638 11.3334 5.67681 11.3334 5.5C11.3334 5.32319 11.2632 5.15362 11.1382 5.0286C11.0131 4.90357 10.8436 4.83333 10.6667 4.83333Z" fill="#2196F3"/>
</svg>
