<svg width="14" height="14" viewBox="0 0 14 14" fill="none" xmlns="http://www.w3.org/2000/svg">
<path d="M12.8333 6.16671H7.83331V1.16671C7.83331 0.945694 7.74552 0.733732 7.58923 0.577452C7.43295 0.421172 7.22099 0.333374 6.99998 0.333374C6.77897 0.333374 6.567 0.421172 6.41072 0.577452C6.25444 0.733732 6.16665 0.945694 6.16665 1.16671V6.16671H1.16665C0.945633 6.16671 0.733671 6.2545 0.577391 6.41079C0.421111 6.56707 0.333313 6.77903 0.333313 7.00004C0.333313 7.22105 0.421111 7.43302 0.577391 7.5893C0.733671 7.74558 0.945633 7.83337 1.16665 7.83337H6.16665V12.8334C6.16665 13.0544 6.25444 13.2663 6.41072 13.4226C6.567 13.5789 6.77897 13.6667 6.99998 13.6667C7.22099 13.6667 7.43295 13.5789 7.58923 13.4226C7.74552 13.2663 7.83331 13.0544 7.83331 12.8334V7.83337H12.8333C13.0543 7.83337 13.2663 7.74558 13.4226 7.5893C13.5788 7.43302 13.6666 7.22105 13.6666 7.00004C13.6666 6.77903 13.5788 6.56707 13.4226 6.41079C13.2663 6.2545 13.0543 6.16671 12.8333 6.16671Z" fill="white"/>
</svg>
