<svg width="18" height="18" viewBox="0 0 18 18" fill="none" xmlns="http://www.w3.org/2000/svg">
<path d="M4.83332 7.33329C4.66851 7.33329 4.50739 7.38217 4.37035 7.47373C4.23331 7.5653 4.1265 7.69545 4.06342 7.84772C4.00035 7.99999 3.98385 8.16755 4.016 8.3292C4.04816 8.49085 4.12752 8.63934 4.24407 8.75588C4.36061 8.87243 4.5091 8.95179 4.67075 8.98395C4.8324 9.0161 4.99995 8.9996 5.15223 8.93653C5.3045 8.87345 5.43465 8.76664 5.52621 8.6296C5.61778 8.49256 5.66666 8.33144 5.66666 8.16663C5.66666 7.94561 5.57886 7.73365 5.42258 7.57737C5.2663 7.42109 5.05434 7.33329 4.83332 7.33329ZM14.8333 3.99996H14V1.49996C14 1.27895 13.9122 1.06698 13.7559 0.910704C13.5996 0.754423 13.3877 0.666626 13.1667 0.666626H4.83332C4.61231 0.666626 4.40035 0.754423 4.24407 0.910704C4.08779 1.06698 3.99999 1.27895 3.99999 1.49996V3.99996H3.16666C2.50362 3.99996 1.86773 4.26335 1.39889 4.73219C0.930049 5.20103 0.666656 5.83692 0.666656 6.49996V11.5C0.666656 12.163 0.930049 12.7989 1.39889 13.2677C1.86773 13.7366 2.50362 14 3.16666 14H3.99999V16.5C3.99999 16.721 4.08779 16.9329 4.24407 17.0892C4.40035 17.2455 4.61231 17.3333 4.83332 17.3333H13.1667C13.3877 17.3333 13.5996 17.2455 13.7559 17.0892C13.9122 16.9329 14 16.721 14 16.5V14H14.8333C15.4964 14 16.1322 13.7366 16.6011 13.2677C17.0699 12.7989 17.3333 12.163 17.3333 11.5V6.49996C17.3333 5.83692 17.0699 5.20103 16.6011 4.73219C16.1322 4.26335 15.4964 3.99996 14.8333 3.99996ZM5.66666 2.33329H12.3333V3.99996H5.66666V2.33329ZM12.3333 15.6666H5.66666V12.3333H12.3333V15.6666ZM15.6667 11.5C15.6667 11.721 15.5789 11.9329 15.4226 12.0892C15.2663 12.2455 15.0543 12.3333 14.8333 12.3333H14V11.5C14 11.2789 13.9122 11.067 13.7559 10.9107C13.5996 10.7544 13.3877 10.6666 13.1667 10.6666H4.83332C4.61231 10.6666 4.40035 10.7544 4.24407 10.9107C4.08779 11.067 3.99999 11.2789 3.99999 11.5V12.3333H3.16666C2.94564 12.3333 2.73368 12.2455 2.5774 12.0892C2.42112 11.9329 2.33332 11.721 2.33332 11.5V6.49996C2.33332 6.27895 2.42112 6.06698 2.5774 5.9107C2.73368 5.75442 2.94564 5.66663 3.16666 5.66663H14.8333C15.0543 5.66663 15.2663 5.75442 15.4226 5.9107C15.5789 6.06698 15.6667 6.27895 15.6667 6.49996V11.5Z" fill="#535260"/>
</svg>
