<svg width="18" height="6" viewBox="0 0 18 6" fill="none" xmlns="http://www.w3.org/2000/svg">
<path d="M1.50001 2.16667H16.5C16.721 2.16667 16.933 2.07887 17.0893 1.92259C17.2455 1.76631 17.3333 1.55435 17.3333 1.33333C17.3333 1.11232 17.2455 0.900358 17.0893 0.744078C16.933 0.587798 16.721 0.5 16.5 0.5H1.50001C1.27899 0.5 1.06703 0.587798 0.910749 0.744078C0.754469 0.900358 0.666672 1.11232 0.666672 1.33333C0.666672 1.55435 0.754469 1.76631 0.910749 1.92259C1.06703 2.07887 1.27899 2.16667 1.50001 2.16667ZM16.5 3.83333H1.50001C1.27899 3.83333 1.06703 3.92113 0.910749 4.07741C0.754469 4.23369 0.666672 4.44565 0.666672 4.66667C0.666672 4.88768 0.754469 5.09964 0.910749 5.25592C1.06703 5.4122 1.27899 5.5 1.50001 5.5H16.5C16.721 5.5 16.933 5.4122 17.0893 5.25592C17.2455 5.09964 17.3333 4.88768 17.3333 4.66667C17.3333 4.44565 17.2455 4.23369 17.0893 4.07741C16.933 3.92113 16.721 3.83333 16.5 3.83333Z" fill="#8C8B98"/>
</svg>
