<svg width="20" height="21" viewBox="0 0 20 21" fill="none" xmlns="http://www.w3.org/2000/svg">
<g opacity="0.5">
<path d="M10.0001 2.16667C8.38385 2.16974 6.80336 2.64276 5.45115 3.52812C4.09893 4.41348 3.03337 5.67296 2.38424 7.15315C1.73511 8.63334 1.53044 10.2704 1.79514 11.8648C2.05985 13.4592 2.78252 14.9423 3.87512 16.1333C4.65547 16.9792 5.60257 17.6543 6.65674 18.116C7.7109 18.5777 8.84927 18.8161 10.0001 18.8161C11.151 18.8161 12.2893 18.5777 13.3435 18.116C14.3977 17.6543 15.3448 16.9792 16.1251 16.1333C17.2177 14.9423 17.9404 13.4592 18.2051 11.8648C18.4698 10.2704 18.2651 8.63334 17.616 7.15315C16.9669 5.67296 15.9013 4.41348 14.5491 3.52812C13.1969 2.64276 11.6164 2.16974 10.0001 2.16667ZM10.0001 17.1667C8.27384 17.164 6.61588 16.4919 5.37512 15.2917C5.75183 14.3746 6.39265 13.5903 7.21617 13.0382C8.03968 12.4862 9.00871 12.1915 10.0001 12.1915C10.9915 12.1915 11.9606 12.4862 12.7841 13.0382C13.6076 13.5903 14.2484 14.3746 14.6251 15.2917C13.3844 16.4919 11.7264 17.164 10.0001 17.1667ZM8.33346 8.83334C8.33346 8.5037 8.4312 8.18147 8.61434 7.90739C8.79748 7.63331 9.05777 7.41969 9.36232 7.29354C9.66686 7.16739 10.002 7.13439 10.3253 7.1987C10.6486 7.26301 10.9455 7.42174 11.1786 7.65483C11.4117 7.88792 11.5705 8.18489 11.6348 8.50819C11.6991 8.83149 11.6661 9.1666 11.5399 9.47114C11.4138 9.77569 11.2002 10.036 10.9261 10.2191C10.652 10.4023 10.3298 10.5 10.0001 10.5C9.55809 10.5 9.13417 10.3244 8.82161 10.0118C8.50905 9.69929 8.33346 9.27537 8.33346 8.83334ZM15.7585 13.8333C15.0139 12.5598 13.868 11.5692 12.5001 11.0167C12.9244 10.5356 13.2009 9.94222 13.2963 9.30787C13.3918 8.67352 13.3022 8.0251 13.0382 7.44042C12.7743 6.85574 12.3473 6.35964 11.8084 6.01164C11.2695 5.66365 10.6416 5.47855 10.0001 5.47855C9.35863 5.47855 8.73076 5.66365 8.19187 6.01164C7.65297 6.35964 7.22593 6.85574 6.962 7.44042C6.69806 8.0251 6.60844 8.67352 6.7039 9.30787C6.79935 9.94222 7.07582 10.5356 7.50012 11.0167C6.13229 11.5692 4.98635 12.5598 4.24179 13.8333C3.64841 12.8226 3.33489 11.6721 3.33346 10.5C3.33346 8.7319 4.03583 7.0362 5.28608 5.78596C6.53632 4.53572 8.23201 3.83334 10.0001 3.83334C11.7682 3.83334 13.4639 4.53572 14.7142 5.78596C15.9644 7.0362 16.6668 8.7319 16.6668 10.5C16.6654 11.6721 16.3518 12.8226 15.7585 13.8333Z" fill="white"/>
</g>
</svg>
