<svg width="18" height="18" viewBox="0 0 18 18" fill="none" xmlns="http://www.w3.org/2000/svg">
<path d="M9.00002 0.666626C7.35185 0.666626 5.74068 1.15537 4.37027 2.07105C2.99986 2.98672 1.93176 4.28821 1.30103 5.81093C0.670298 7.33365 0.50527 9.0092 0.826813 10.6257C1.14836 12.2422 1.94203 13.7271 3.10747 14.8925C4.27291 16.058 5.75776 16.8516 7.37427 17.1732C8.99078 17.4947 10.6663 17.3297 12.1891 16.699C13.7118 16.0682 15.0133 15.0001 15.9289 13.6297C16.8446 12.2593 17.3334 10.6481 17.3334 8.99996C17.3334 7.90561 17.1178 6.82198 16.699 5.81093C16.2802 4.79988 15.6664 3.88122 14.8926 3.1074C14.1188 2.33358 13.2001 1.71975 12.1891 1.30096C11.178 0.882174 10.0944 0.666626 9.00002 0.666626ZM9.00002 15.6666C7.68148 15.6666 6.39255 15.2756 5.29622 14.5431C4.19989 13.8105 3.34541 12.7694 2.84083 11.5512C2.33624 10.333 2.20422 8.99256 2.46146 7.69936C2.71869 6.40615 3.35363 5.21826 4.28598 4.28591C5.21833 3.35356 6.40622 2.71863 7.69942 2.46139C8.99263 2.20416 10.3331 2.33618 11.5512 2.84076C12.7694 3.34535 13.8106 4.19983 14.5432 5.29616C15.2757 6.39249 15.6667 7.68142 15.6667 8.99996C15.6667 10.7681 14.9643 12.4638 13.7141 13.714C12.4638 14.9642 10.7681 15.6666 9.00002 15.6666ZM9.41669 4.83329H6.91669C6.69568 4.83329 6.48372 4.92109 6.32744 5.07737C6.17115 5.23365 6.08336 5.44561 6.08336 5.66663V12.3333C6.08336 12.5543 6.17115 12.7663 6.32744 12.9225C6.48372 13.0788 6.69568 13.1666 6.91669 13.1666C7.1377 13.1666 7.34967 13.0788 7.50595 12.9225C7.66223 12.7663 7.75002 12.5543 7.75002 12.3333V10.6666H9.41669C9.6377 10.6666 9.84967 10.7544 10.0059 10.9107C10.1622 11.067 10.25 11.2789 10.25 11.5V12.3333C10.25 12.5543 10.3378 12.7663 10.4941 12.9225C10.6504 13.0788 10.8623 13.1666 11.0834 13.1666C11.3044 13.1666 11.5163 13.0788 11.6726 12.9225C11.8289 12.7663 11.9167 12.5543 11.9167 12.3333V11.5C11.913 10.8832 11.6815 10.2897 11.2667 9.83329C11.6815 9.37693 11.913 8.78334 11.9167 8.16663V7.33329C11.9167 6.67025 11.6533 6.03437 11.1845 5.56553C10.7156 5.09668 10.0797 4.83329 9.41669 4.83329ZM10.25 8.16663C10.25 8.38764 10.1622 8.5996 10.0059 8.75588C9.84967 8.91216 9.6377 8.99996 9.41669 8.99996H7.75002V6.49996H9.41669C9.6377 6.49996 9.84967 6.58776 10.0059 6.74404C10.1622 6.90032 10.25 7.11228 10.25 7.33329V8.16663Z" fill="#C5C4CF"/>
</svg>
