<svg width="128" height="24" viewBox="0 0 128 24" fill="none" xmlns="http://www.w3.org/2000/svg">
<path d="M22 9.66999C21.9368 9.48708 21.822 9.32642 21.6693 9.20749C21.5167 9.08857 21.3328 9.01649 21.14 8.99999L15.45 8.16999L12.9 2.99999C12.8181 2.83092 12.6902 2.68833 12.5311 2.58857C12.3719 2.4888 12.1878 2.43588 12 2.43588C11.8121 2.43588 11.6281 2.4888 11.4689 2.58857C11.3097 2.68833 11.1819 2.83092 11.1 2.99999L8.54998 8.15999L2.85998 8.99999C2.6749 9.0263 2.5009 9.10396 2.35773 9.22415C2.21455 9.34435 2.10794 9.50227 2.04998 9.67999C1.99692 9.85367 1.99216 10.0385 2.03621 10.2147C2.08025 10.3909 2.17144 10.5517 2.29998 10.68L6.42998 14.68L5.42998 20.36C5.39428 20.5475 5.41297 20.7412 5.48385 20.9184C5.55473 21.0956 5.67483 21.2489 5.82998 21.36C5.98119 21.4681 6.15955 21.5319 6.34503 21.5443C6.5305 21.5566 6.71575 21.5171 6.87998 21.43L12 18.76L17.1 21.44C17.2403 21.5192 17.3988 21.5605 17.56 21.56C17.7718 21.5607 17.9784 21.4942 18.15 21.37C18.3051 21.2589 18.4252 21.1056 18.4961 20.9284C18.567 20.7512 18.5857 20.5575 18.55 20.37L17.55 14.69L21.68 10.69C21.8244 10.5677 21.9311 10.4069 21.9877 10.2263C22.0444 10.0458 22.0486 9.85287 22 9.66999Z" fill="#33BBFF"/>
<path d="M48 9.66999C47.9368 9.48708 47.822 9.32642 47.6693 9.20749C47.5167 9.08857 47.3328 9.01649 47.14 8.99999L41.45 8.16999L38.9 2.99999C38.8181 2.83092 38.6902 2.68833 38.5311 2.58857C38.3719 2.4888 38.1878 2.43588 38 2.43588C37.8121 2.43588 37.6281 2.4888 37.4689 2.58857C37.3097 2.68833 37.1819 2.83092 37.1 2.99999L34.55 8.15999L28.86 8.99999C28.6749 9.0263 28.5009 9.10396 28.3577 9.22415C28.2146 9.34435 28.1079 9.50227 28.05 9.67999C27.9969 9.85367 27.9922 10.0385 28.0362 10.2147C28.0802 10.3909 28.1714 10.5517 28.3 10.68L32.43 14.68L31.43 20.36C31.3943 20.5475 31.413 20.7412 31.4838 20.9184C31.5547 21.0956 31.6748 21.2489 31.83 21.36C31.9812 21.4681 32.1596 21.5319 32.345 21.5443C32.5305 21.5566 32.7157 21.5171 32.88 21.43L38 18.76L43.1 21.44C43.2403 21.5192 43.3988 21.5605 43.56 21.56C43.7718 21.5607 43.9784 21.4942 44.15 21.37C44.3051 21.2589 44.4252 21.1056 44.4961 20.9284C44.567 20.7512 44.5857 20.5575 44.55 20.37L43.55 14.69L47.68 10.69C47.8244 10.5677 47.9311 10.4069 47.9877 10.2263C48.0444 10.0458 48.0486 9.85287 48 9.66999Z" fill="#33BBFF"/>
<path d="M74 9.66999C73.9368 9.48708 73.822 9.32642 73.6693 9.20749C73.5167 9.08857 73.3328 9.01649 73.14 8.99999L67.45 8.16999L64.9 2.99999C64.8181 2.83092 64.6902 2.68833 64.5311 2.58857C64.3719 2.4888 64.1878 2.43588 64 2.43588C63.8121 2.43588 63.6281 2.4888 63.4689 2.58857C63.3097 2.68833 63.1819 2.83092 63.1 2.99999L60.55 8.15999L54.86 8.99999C54.6749 9.0263 54.5009 9.10396 54.3577 9.22415C54.2146 9.34435 54.1079 9.50227 54.05 9.67999C53.9969 9.85367 53.9922 10.0385 54.0362 10.2147C54.0802 10.3909 54.1714 10.5517 54.3 10.68L58.43 14.68L57.43 20.36C57.3943 20.5475 57.413 20.7412 57.4838 20.9184C57.5547 21.0956 57.6748 21.2489 57.83 21.36C57.9812 21.4681 58.1596 21.5319 58.345 21.5443C58.5305 21.5566 58.7157 21.5171 58.88 21.43L64 18.76L69.1 21.44C69.2403 21.5192 69.3988 21.5605 69.56 21.56C69.7718 21.5607 69.9784 21.4942 70.15 21.37C70.3051 21.2589 70.4252 21.1056 70.4961 20.9284C70.567 20.7512 70.5857 20.5575 70.55 20.37L69.55 14.69L73.68 10.69C73.8244 10.5677 73.9311 10.4069 73.9877 10.2263C74.0444 10.0458 74.0486 9.85287 74 9.66999Z" fill="#33BBFF"/>
<path d="M100 9.66999C99.9368 9.48708 99.822 9.32642 99.6693 9.20749C99.5167 9.08857 99.3328 9.01649 99.14 8.99999L93.45 8.16999L90.9 2.99999C90.8181 2.83092 90.6902 2.68833 90.5311 2.58857C90.3719 2.4888 90.1878 2.43588 90 2.43588C89.8121 2.43588 89.6281 2.4888 89.4689 2.58857C89.3097 2.68833 89.1819 2.83092 89.1 2.99999L86.55 8.15999L80.86 8.99999C80.6749 9.0263 80.5009 9.10396 80.3577 9.22415C80.2146 9.34435 80.1079 9.50227 80.05 9.67999C79.9969 9.85367 79.9922 10.0385 80.0362 10.2147C80.0802 10.3909 80.1714 10.5517 80.3 10.68L84.43 14.68L83.43 20.36C83.3943 20.5475 83.413 20.7412 83.4838 20.9184C83.5547 21.0956 83.6748 21.2489 83.83 21.36C83.9812 21.4681 84.1596 21.5319 84.345 21.5443C84.5305 21.5566 84.7157 21.5171 84.88 21.43L90 18.76L95.1 21.44C95.2403 21.5192 95.3988 21.5605 95.56 21.56C95.7718 21.5607 95.9784 21.4942 96.15 21.37C96.3051 21.2589 96.4252 21.1056 96.4961 20.9284C96.567 20.7512 96.5857 20.5575 96.55 20.37L95.55 14.69L99.68 10.69C99.8244 10.5677 99.9311 10.4069 99.9877 10.2263C100.044 10.0458 100.049 9.85287 100 9.66999Z" fill="#33BBFF"/>
<path d="M126 9.66999C125.937 9.48708 125.822 9.32642 125.669 9.20749C125.517 9.08857 125.333 9.01649 125.14 8.99999L119.45 8.16999L116.9 2.99999C116.818 2.83092 116.69 2.68833 116.531 2.58857C116.372 2.4888 116.188 2.43588 116 2.43588C115.812 2.43588 115.628 2.4888 115.469 2.58857C115.31 2.68833 115.182 2.83092 115.1 2.99999L112.55 8.15999L106.86 8.99999C106.675 9.0263 106.501 9.10396 106.358 9.22415C106.215 9.34435 106.108 9.50227 106.05 9.67999C105.997 9.85367 105.992 10.0385 106.036 10.2147C106.08 10.3909 106.171 10.5517 106.3 10.68L110.43 14.68L109.43 20.36C109.394 20.5475 109.413 20.7412 109.484 20.9184C109.555 21.0956 109.675 21.2489 109.83 21.36C109.981 21.4681 110.16 21.5319 110.345 21.5443C110.53 21.5566 110.716 21.5171 110.88 21.43L116 18.76L121.1 21.44C121.24 21.5192 121.399 21.5605 121.56 21.56C121.772 21.5607 121.978 21.4942 122.15 21.37C122.305 21.2589 122.425 21.1056 122.496 20.9284C122.567 20.7512 122.586 20.5575 122.55 20.37L121.55 14.69L125.68 10.69C125.824 10.5677 125.931 10.4069 125.988 10.2263C126.044 10.0458 126.049 9.85287 126 9.66999ZM119.85 13.67C119.733 13.7834 119.645 13.9238 119.594 14.079C119.544 14.2341 119.532 14.3992 119.56 14.56L120.28 18.75L116.52 16.75C116.375 16.673 116.214 16.6327 116.05 16.6327C115.886 16.6327 115.725 16.673 115.58 16.75L111.82 18.75L112.54 14.56C112.568 14.3992 112.556 14.2341 112.506 14.079C112.455 13.9238 112.367 13.7834 112.25 13.67L109.25 10.67L113.46 10.06C113.622 10.0375 113.776 9.97553 113.908 9.87964C114.041 9.78376 114.148 9.65683 114.22 9.50999L116 5.69999L117.88 9.51999C117.952 9.66683 118.059 9.79376 118.191 9.88964C118.324 9.98553 118.478 10.0475 118.64 10.07L122.85 10.68L119.85 13.67Z" fill="#E1E0EB"/>
</svg>
