<svg width="16" height="18" viewBox="0 0 16 18" fill="none" xmlns="http://www.w3.org/2000/svg">
<path d="M6.33333 14C6.55435 14 6.76631 13.9122 6.92259 13.7559C7.07887 13.5996 7.16667 13.3877 7.16667 13.1667V8.16666C7.16667 7.94564 7.07887 7.73368 6.92259 7.5774C6.76631 7.42112 6.55435 7.33332 6.33333 7.33332C6.11232 7.33332 5.90036 7.42112 5.74408 7.5774C5.5878 7.73368 5.5 7.94564 5.5 8.16666V13.1667C5.5 13.3877 5.5878 13.5996 5.74408 13.7559C5.90036 13.9122 6.11232 14 6.33333 14ZM14.6667 3.99999H11.3333V3.16666C11.3333 2.50362 11.0699 1.86773 10.6011 1.39889C10.1323 0.930049 9.49637 0.666656 8.83333 0.666656H7.16667C6.50363 0.666656 5.86774 0.930049 5.3989 1.39889C4.93006 1.86773 4.66667 2.50362 4.66667 3.16666V3.99999H1.33333C1.11232 3.99999 0.900358 4.08779 0.744078 4.24407C0.587797 4.40035 0.5 4.61231 0.5 4.83332C0.5 5.05434 0.587797 5.2663 0.744078 5.42258C0.900358 5.57886 1.11232 5.66666 1.33333 5.66666H2.16667V14.8333C2.16667 15.4964 2.43006 16.1322 2.8989 16.6011C3.36774 17.0699 4.00363 17.3333 4.66667 17.3333H11.3333C11.9964 17.3333 12.6323 17.0699 13.1011 16.6011C13.5699 16.1322 13.8333 15.4964 13.8333 14.8333V5.66666H14.6667C14.8877 5.66666 15.0996 5.57886 15.2559 5.42258C15.4122 5.2663 15.5 5.05434 15.5 4.83332C15.5 4.61231 15.4122 4.40035 15.2559 4.24407C15.0996 4.08779 14.8877 3.99999 14.6667 3.99999ZM6.33333 3.16666C6.33333 2.94564 6.42113 2.73368 6.57741 2.5774C6.73369 2.42112 6.94565 2.33332 7.16667 2.33332H8.83333C9.05435 2.33332 9.26631 2.42112 9.42259 2.5774C9.57887 2.73368 9.66667 2.94564 9.66667 3.16666V3.99999H6.33333V3.16666ZM12.1667 14.8333C12.1667 15.0543 12.0789 15.2663 11.9226 15.4226C11.7663 15.5789 11.5543 15.6667 11.3333 15.6667H4.66667C4.44565 15.6667 4.23369 15.5789 4.07741 15.4226C3.92113 15.2663 3.83333 15.0543 3.83333 14.8333V5.66666H12.1667V14.8333ZM9.66667 14C9.88768 14 10.0996 13.9122 10.2559 13.7559C10.4122 13.5996 10.5 13.3877 10.5 13.1667V8.16666C10.5 7.94564 10.4122 7.73368 10.2559 7.5774C10.0996 7.42112 9.88768 7.33332 9.66667 7.33332C9.44565 7.33332 9.23369 7.42112 9.07741 7.5774C8.92113 7.73368 8.83333 7.94564 8.83333 8.16666V13.1667C8.83333 13.3877 8.92113 13.5996 9.07741 13.7559C9.23369 13.9122 9.44565 14 9.66667 14Z" fill="#535260"/>
</svg>
