<svg width="18" height="17" viewBox="0 0 18 17" fill="none" xmlns="http://www.w3.org/2000/svg">
<path d="M12.9751 2.975C13.1664 3.08364 13.393 3.1122 13.6053 3.05443C13.8176 2.99667 13.9985 2.85728 14.1084 2.66667C14.1818 2.5395 14.2876 2.43398 14.4149 2.36082C14.5422 2.28765 14.6866 2.24942 14.8334 2.25C15.0544 2.25 15.2664 2.3378 15.4227 2.49408C15.579 2.65036 15.6667 2.86232 15.6667 3.08333C15.6667 3.30435 15.579 3.51631 15.4227 3.67259C15.2664 3.82887 15.0544 3.91667 14.8334 3.91667C14.6124 3.91667 14.4004 4.00446 14.2442 4.16074C14.0879 4.31703 14.0001 4.52899 14.0001 4.75C14.0001 4.97101 14.0879 5.18298 14.2442 5.33926C14.4004 5.49554 14.6124 5.58333 14.8334 5.58333C15.2722 5.58305 15.7032 5.4673 16.083 5.2477C16.4629 5.0281 16.7783 4.71239 16.9975 4.33229C17.2167 3.9522 17.332 3.52111 17.3318 3.08233C17.3316 2.64356 17.216 2.21256 16.9965 1.83264C16.777 1.45272 16.4613 1.13727 16.0813 0.91797C15.7013 0.698674 15.2702 0.583264 14.8314 0.583334C14.3926 0.583404 13.9616 0.698953 13.5816 0.91837C13.2017 1.13779 12.8861 1.45334 12.6667 1.83333C12.6116 1.92844 12.5759 2.03352 12.5616 2.1425C12.5473 2.25148 12.5547 2.36222 12.5833 2.46834C12.612 2.57445 12.6613 2.67385 12.7286 2.76081C12.7958 2.84776 12.8796 2.92056 12.9751 2.975ZM16.5001 9.75C16.2791 9.75 16.0671 9.8378 15.9108 9.99408C15.7545 10.1504 15.6667 10.3623 15.6667 10.5833V13.9167C15.6667 14.1377 15.579 14.3496 15.4227 14.5059C15.2664 14.6622 15.0544 14.75 14.8334 14.75H3.16675C2.94573 14.75 2.73377 14.6622 2.57749 14.5059C2.42121 14.3496 2.33341 14.1377 2.33341 13.9167V5.925L7.23342 10.8333C7.70217 11.3015 8.33758 11.5645 9.00008 11.5645C9.66258 11.5645 10.298 11.3015 10.7667 10.8333L12.1334 9.46667C12.2111 9.38897 12.2727 9.29673 12.3148 9.19521C12.3568 9.09369 12.3785 8.98488 12.3785 8.875C12.3785 8.76512 12.3568 8.65631 12.3148 8.55479C12.2727 8.45327 12.2111 8.36103 12.1334 8.28333C12.0557 8.20563 11.9635 8.144 11.862 8.10195C11.7604 8.0599 11.6516 8.03826 11.5417 8.03826C11.4319 8.03826 11.3231 8.0599 11.2215 8.10195C11.12 8.144 11.0278 8.20563 10.9501 8.28333L9.58342 9.65C9.42764 9.80269 9.21821 9.88822 9.00008 9.88822C8.78195 9.88822 8.57252 9.80269 8.41675 9.65L3.50841 4.75H9.83342C10.0544 4.75 10.2664 4.6622 10.4227 4.50592C10.579 4.34964 10.6667 4.13768 10.6667 3.91667C10.6667 3.69565 10.579 3.48369 10.4227 3.32741C10.2664 3.17113 10.0544 3.08333 9.83342 3.08333H3.16675C2.50371 3.08333 1.86782 3.34673 1.39898 3.81557C0.93014 4.28441 0.666748 4.92029 0.666748 5.58333V13.9167C0.666748 14.5797 0.93014 15.2156 1.39898 15.6844C1.86782 16.1533 2.50371 16.4167 3.16675 16.4167H14.8334C15.4965 16.4167 16.1323 16.1533 16.6012 15.6844C17.07 15.2156 17.3334 14.5797 17.3334 13.9167V10.5833C17.3334 10.3623 17.2456 10.1504 17.0893 9.99408C16.9331 9.8378 16.7211 9.75 16.5001 9.75ZM14.2417 6.65833C14.1636 6.7358 14.1016 6.82797 14.0593 6.92952C14.017 7.03107 13.9952 7.13999 13.9952 7.25C13.9952 7.36001 14.017 7.46893 14.0593 7.57048C14.1016 7.67203 14.1636 7.7642 14.2417 7.84167L14.3667 7.94167C14.4132 7.97321 14.4636 7.99843 14.5167 8.01667C14.564 8.04069 14.6145 8.05755 14.6667 8.06667H14.8334C14.9989 8.06763 15.161 8.01928 15.2989 7.92778C15.4369 7.83628 15.5444 7.70577 15.6079 7.5529C15.6714 7.40003 15.6879 7.23172 15.6553 7.06943C15.6228 6.90714 15.5426 6.75823 15.4251 6.64167C15.3465 6.56464 15.2535 6.50394 15.1513 6.46305C15.0492 6.42217 14.94 6.40192 14.8299 6.40347C14.7199 6.40502 14.6113 6.42834 14.5104 6.47208C14.4094 6.51582 14.3181 6.57913 14.2417 6.65833Z" fill="white"/>
</svg>
