<svg width="8" height="12" viewBox="0 0 8 12" fill="none" xmlns="http://www.w3.org/2000/svg">
<path d="M6.94994 5.40832L2.23328 0.69999C2.15581 0.621883 2.06364 0.559888 1.96209 0.517581C1.86054 0.475273 1.75162 0.453491 1.64161 0.453491C1.5316 0.453491 1.42268 0.475273 1.32113 0.517581C1.21958 0.559888 1.12741 0.621883 1.04994 0.69999C0.894735 0.856125 0.807617 1.06734 0.807617 1.28749C0.807617 1.50764 0.894735 1.71885 1.04994 1.87499L5.17494 6.04166L1.04994 10.1667C0.894735 10.3228 0.807617 10.534 0.807617 10.7542C0.807617 10.9743 0.894735 11.1855 1.04994 11.3417C1.12712 11.4204 1.21916 11.483 1.32072 11.526C1.42229 11.5689 1.53135 11.5912 1.64161 11.5917C1.75187 11.5912 1.86094 11.5689 1.9625 11.526C2.06406 11.483 2.1561 11.4204 2.23328 11.3417L6.94994 6.63332C7.03453 6.55529 7.10204 6.46058 7.14821 6.35516C7.19438 6.24975 7.21822 6.13591 7.21822 6.02082C7.21822 5.90574 7.19438 5.7919 7.14821 5.68648C7.10204 5.58107 7.03453 5.48636 6.94994 5.40832Z" fill="#535260"/>
</svg>
