<svg width="18" height="18" viewBox="0 0 18 18" fill="none" xmlns="http://www.w3.org/2000/svg">
<path d="M15.95 6.76667L4.2833 0.933338C3.82287 0.704179 3.30298 0.622597 2.79449 0.699715C2.28601 0.776833 1.81368 1.0089 1.4419 1.36427C1.07013 1.71964 0.817006 2.18102 0.717039 2.68551C0.617073 3.19 0.67513 3.71305 0.883295 4.18334L2.8833 8.65834C2.92868 8.76653 2.95205 8.88268 2.95205 9.00001C2.95205 9.11733 2.92868 9.23348 2.8833 9.34167L0.883295 13.8167C0.713879 14.1973 0.642258 14.6142 0.674943 15.0295C0.707627 15.4448 0.843581 15.8454 1.07045 16.1948C1.29731 16.5442 1.6079 16.8313 1.97398 17.0302C2.34006 17.229 2.75003 17.3332 3.16663 17.3333C3.55682 17.3294 3.9412 17.2383 4.29163 17.0667L15.9583 11.2333C16.3721 11.0252 16.72 10.7061 16.963 10.3117C17.2061 9.91738 17.3348 9.46325 17.3348 9.00001C17.3348 8.53676 17.2061 8.08263 16.963 7.68827C16.72 7.29392 16.3721 6.97485 15.9583 6.76667H15.95ZM15.2083 9.74167L3.54163 15.575C3.38843 15.6486 3.2164 15.6735 3.04862 15.6465C2.88083 15.6196 2.7253 15.5419 2.60289 15.424C2.48048 15.3062 2.39703 15.1537 2.36374 14.987C2.33045 14.8204 2.3489 14.6475 2.41663 14.4917L4.4083 10.0167C4.43408 9.95691 4.45634 9.8957 4.47496 9.83334H10.2166C10.4376 9.83334 10.6496 9.74554 10.8059 9.58926C10.9622 9.43298 11.05 9.22102 11.05 9.00001C11.05 8.77899 10.9622 8.56703 10.8059 8.41075C10.6496 8.25447 10.4376 8.16667 10.2166 8.16667H4.47496C4.45634 8.10431 4.43408 8.0431 4.4083 7.98334L2.41663 3.50834C2.3489 3.35247 2.33045 3.17963 2.36374 3.01298C2.39703 2.84633 2.48048 2.69384 2.60289 2.57596C2.7253 2.45808 2.88083 2.38045 3.04862 2.35347C3.2164 2.32648 3.38843 2.35145 3.54163 2.42501L15.2083 8.25834C15.3448 8.32827 15.4594 8.43452 15.5393 8.56538C15.6193 8.69624 15.6617 8.84663 15.6617 9.00001C15.6617 9.15338 15.6193 9.30377 15.5393 9.43463C15.4594 9.56549 15.3448 9.67174 15.2083 9.74167Z" fill="#535260"/>
</svg>
