<svg width="18" height="17" viewBox="0 0 18 17" fill="none" xmlns="http://www.w3.org/2000/svg">
<path d="M17.3332 6.55833C17.2806 6.40591 17.1849 6.27202 17.0577 6.17292C16.9305 6.07381 16.7772 6.01375 16.6166 6L11.8749 5.30833L9.7499 0.999999C9.68166 0.859106 9.57512 0.740284 9.44247 0.657143C9.30983 0.574003 9.15645 0.529907 8.9999 0.529907C8.84335 0.529907 8.68997 0.574003 8.55733 0.657143C8.42468 0.740284 8.31814 0.859106 8.2499 0.999999L6.1249 5.3L1.38323 6C1.229 6.02192 1.084 6.08663 0.964692 6.1868C0.84538 6.28696 0.756533 6.41856 0.708233 6.56667C0.664021 6.71139 0.660053 6.86543 0.696756 7.01224C0.733459 7.15906 0.809448 7.2931 0.916567 7.4L4.35823 10.7333L3.5249 15.4667C3.49515 15.6229 3.51073 15.7844 3.56979 15.932C3.62886 16.0797 3.72894 16.2074 3.85823 16.3C3.98425 16.3901 4.13288 16.4433 4.28744 16.4536C4.442 16.4639 4.59638 16.4309 4.73323 16.3583L8.9999 14.1333L13.2499 16.3667C13.3669 16.4326 13.499 16.4671 13.6332 16.4667C13.8098 16.4673 13.9819 16.4119 14.1249 16.3083C14.2542 16.2157 14.3543 16.088 14.4133 15.9404C14.4724 15.7927 14.488 15.6312 14.4582 15.475L13.6249 10.7417L17.0666 7.40833C17.1869 7.3064 17.2758 7.17242 17.323 7.02196C17.3702 6.87149 17.3738 6.71073 17.3332 6.55833ZM12.2082 9.89167C12.1105 9.98619 12.0374 10.1032 11.9953 10.2325C11.9531 10.3618 11.9433 10.4994 11.9666 10.6333L12.5666 14.125L9.43323 12.4583C9.31266 12.3941 9.17816 12.3606 9.04157 12.3606C8.90497 12.3606 8.77047 12.3941 8.6499 12.4583L5.51657 14.125L6.11657 10.6333C6.13985 10.4994 6.12999 10.3618 6.08787 10.2325C6.04575 10.1032 5.97263 9.98619 5.8749 9.89167L3.3749 7.39167L6.88323 6.88333C7.01823 6.86455 7.14656 6.81295 7.25698 6.73304C7.3674 6.65313 7.45653 6.54736 7.51657 6.425L8.9999 3.25L10.5666 6.43333C10.6266 6.5557 10.7157 6.66147 10.8262 6.74138C10.9366 6.82128 11.0649 6.87289 11.1999 6.89167L14.7082 7.4L12.2082 9.89167Z" fill="white"/>
</svg>
