<svg width="15" height="3" viewBox="0 0 15 3" fill="none" xmlns="http://www.w3.org/2000/svg">
<path d="M7.5 0C7.20333 0 6.91332 0.0879736 6.66665 0.252796C6.41997 0.417618 6.22771 0.651886 6.11418 0.925975C6.00065 1.20006 5.97094 1.50166 6.02882 1.79264C6.0867 2.08361 6.22956 2.35088 6.43934 2.56066C6.64912 2.77044 6.91639 2.9133 7.20737 2.97118C7.49834 3.02906 7.79994 2.99935 8.07403 2.88582C8.34811 2.77229 8.58238 2.58003 8.7472 2.33336C8.91203 2.08668 9 1.79667 9 1.5C9 1.10218 8.84196 0.720645 8.56066 0.43934C8.27936 0.158036 7.89783 0 7.5 0ZM2.25 0C1.95333 0 1.66332 0.0879736 1.41665 0.252796C1.16997 0.417618 0.977713 0.651886 0.864181 0.925975C0.75065 1.20006 0.720945 1.50166 0.778823 1.79264C0.836701 2.08361 0.979562 2.35088 1.18934 2.56066C1.39912 2.77044 1.66639 2.9133 1.95737 2.97118C2.24834 3.02906 2.54994 2.99935 2.82403 2.88582C3.09812 2.77229 3.33238 2.58003 3.49721 2.33336C3.66203 2.08668 3.75 1.79667 3.75 1.5C3.75 1.10218 3.59197 0.720645 3.31066 0.43934C3.02936 0.158036 2.64783 0 2.25 0ZM12.75 0C12.4533 0 12.1633 0.0879736 11.9166 0.252796C11.67 0.417618 11.4777 0.651886 11.3642 0.925975C11.2506 1.20006 11.2209 1.50166 11.2788 1.79264C11.3367 2.08361 11.4796 2.35088 11.6893 2.56066C11.8991 2.77044 12.1664 2.9133 12.4574 2.97118C12.7483 3.02906 13.0499 2.99935 13.324 2.88582C13.5981 2.77229 13.8324 2.58003 13.9972 2.33336C14.162 2.08668 14.25 1.79667 14.25 1.5C14.25 1.10218 14.092 0.720645 13.8107 0.43934C13.5294 0.158036 13.1478 0 12.75 0Z" fill="#535260"/>
</svg>
