<svg width="8" height="5" viewBox="0 0 8 5" fill="none" xmlns="http://www.w3.org/2000/svg">
<path d="M7.33334 0.613333C7.20843 0.489166 7.03946 0.419472 6.86334 0.419472C6.68722 0.419472 6.51825 0.489166 6.39334 0.613333L4.00001 2.97333L1.64001 0.613333C1.5151 0.489166 1.34613 0.419472 1.17001 0.419472C0.993883 0.419472 0.824915 0.489166 0.700006 0.613333C0.637521 0.675309 0.587925 0.749043 0.554079 0.830282C0.520233 0.911522 0.502808 0.998659 0.502808 1.08667C0.502808 1.17467 0.520233 1.26181 0.554079 1.34305C0.587925 1.42429 0.637521 1.49802 0.700006 1.56L3.52667 4.38667C3.58865 4.44915 3.66238 4.49875 3.74362 4.53259C3.82486 4.56644 3.912 4.58387 4.00001 4.58387C4.08801 4.58387 4.17515 4.56644 4.25639 4.53259C4.33763 4.49875 4.41136 4.44915 4.47334 4.38667L7.33334 1.56C7.39582 1.49802 7.44542 1.42429 7.47927 1.34305C7.51311 1.26181 7.53054 1.17467 7.53054 1.08667C7.53054 0.998659 7.51311 0.911522 7.47927 0.830282C7.44542 0.749043 7.39582 0.675309 7.33334 0.613333Z" fill="#2196F3"/>
</svg>
