<svg width="7" height="12" viewBox="0 0 7 12" fill="none" xmlns="http://www.w3.org/2000/svg">
<path d="M0.325935 6.63684L5.0426 11.3452C5.12007 11.4233 5.21224 11.4853 5.31379 11.5276C5.41534 11.5699 5.52426 11.5917 5.63427 11.5917C5.74428 11.5917 5.8532 11.5699 5.95475 11.5276C6.0563 11.4853 6.14847 11.4233 6.22593 11.3452C6.38114 11.189 6.46826 10.9778 6.46826 10.7577C6.46826 10.5375 6.38114 10.3263 6.22593 10.1702L2.10093 6.00351L6.22593 1.87851C6.38114 1.72237 6.46826 1.51116 6.46826 1.29101C6.46826 1.07085 6.38114 0.859645 6.22593 0.703509C6.14876 0.624769 6.05672 0.562127 5.95516 0.519214C5.85359 0.476299 5.74452 0.453968 5.63427 0.45351C5.52401 0.453968 5.41494 0.476299 5.31338 0.519214C5.21182 0.562127 5.11978 0.624769 5.0426 0.703509L0.325935 5.41184C0.241347 5.48988 0.173841 5.58459 0.127667 5.69C0.0814948 5.79542 0.0576577 5.90926 0.0576577 6.02434C0.0576577 6.13943 0.0814948 6.25326 0.127667 6.35868C0.173841 6.4641 0.241347 6.55881 0.325935 6.63684Z" fill="white"/>
</svg>
