<svg width="7" height="12" viewBox="0 0 7 12" fill="none" xmlns="http://www.w3.org/2000/svg">
<path d="M6.69994 5.40832L1.98328 0.69999C1.90581 0.621883 1.81364 0.559888 1.71209 0.517581C1.61054 0.475273 1.50162 0.453491 1.39161 0.453491C1.2816 0.453491 1.17268 0.475273 1.07113 0.517581C0.969581 0.559888 0.877413 0.621883 0.799944 0.69999C0.644735 0.856125 0.557617 1.06734 0.557617 1.28749C0.557617 1.50764 0.644735 1.71885 0.799944 1.87499L4.92494 6.04166L0.799944 10.1667C0.644735 10.3228 0.557617 10.534 0.557617 10.7542C0.557617 10.9743 0.644735 11.1855 0.799944 11.3417C0.877123 11.4204 0.969161 11.483 1.07072 11.526C1.17229 11.5689 1.28135 11.5912 1.39161 11.5917C1.50187 11.5912 1.61094 11.5689 1.7125 11.526C1.81406 11.483 1.9061 11.4204 1.98328 11.3417L6.69994 6.63332C6.78453 6.55529 6.85204 6.46058 6.89821 6.35516C6.94438 6.24975 6.96822 6.13591 6.96822 6.02082C6.96822 5.90574 6.94438 5.7919 6.89821 5.68648C6.85204 5.58107 6.78453 5.48636 6.69994 5.40832Z" fill="white"/>
</svg>
