<svg width="10" height="6" viewBox="0 0 10 6" fill="none" xmlns="http://www.w3.org/2000/svg">
<path d="M9.16666 4.17497L5.59166 0.64164C5.51419 0.563533 5.42202 0.501538 5.32047 0.459231C5.21892 0.416924 5.11 0.395142 4.99999 0.395142C4.88998 0.395142 4.78106 0.416924 4.67951 0.459231C4.57796 0.501538 4.48579 0.563533 4.40833 0.64164L0.874993 4.17497C0.796886 4.25244 0.73489 4.34461 0.692583 4.44616C0.650276 4.54771 0.628494 4.65663 0.628494 4.76664C0.628494 4.87665 0.650276 4.98557 0.692583 5.08712C0.73489 5.18867 0.796886 5.28084 0.874993 5.35831C1.03113 5.51352 1.24234 5.60063 1.46249 5.60063C1.68265 5.60063 1.89386 5.51352 2.04999 5.35831L4.99999 2.40831L7.94999 5.35831C8.10521 5.51226 8.31471 5.59905 8.53333 5.59997C8.643 5.60061 8.75172 5.57959 8.85325 5.53812C8.95478 5.49665 9.04713 5.43554 9.12499 5.35831C9.20589 5.28363 9.27118 5.19365 9.31711 5.09359C9.36303 4.99353 9.38867 4.88536 9.39254 4.77533C9.39642 4.6653 9.37845 4.55559 9.33968 4.45255C9.30091 4.3495 9.2421 4.25516 9.16666 4.17497Z" fill="#EF5350"/>
</svg>
