<svg width="10" height="16" viewBox="0 0 10 16" fill="none" xmlns="http://www.w3.org/2000/svg">
<path d="M8.57499 9.90834L4.99999 13.4917L1.42499 9.90834C1.26807 9.75142 1.05524 9.66327 0.833325 9.66327C0.611407 9.66327 0.398578 9.75142 0.241658 9.90834C0.0847387 10.0653 -0.00341797 10.2781 -0.00341797 10.5C-0.00341797 10.7219 0.0847387 10.9348 0.241658 11.0917L4.40833 15.2583C4.48579 15.3364 4.57796 15.3984 4.67951 15.4408C4.78106 15.4831 4.88998 15.5048 4.99999 15.5048C5.11 15.5048 5.21892 15.4831 5.32047 15.4408C5.42202 15.3984 5.51419 15.3364 5.59166 15.2583L9.75832 11.0917C9.83602 11.014 9.89766 10.9217 9.93971 10.8202C9.98176 10.7187 10.0034 10.6099 10.0034 10.5C10.0034 10.3901 9.98176 10.2813 9.93971 10.1798C9.89766 10.0783 9.83602 9.98604 9.75832 9.90834C9.68063 9.83064 9.58838 9.76901 9.48687 9.72696C9.38535 9.68491 9.27654 9.66327 9.16666 9.66327C9.05678 9.66327 8.94797 9.68491 8.84645 9.72696C8.74493 9.76901 8.65269 9.83064 8.57499 9.90834ZM1.42499 6.09168L4.99999 2.50834L8.57499 6.09168C8.65246 6.16978 8.74463 6.23178 8.84618 6.27409C8.94773 6.31639 9.05665 6.33818 9.16666 6.33818C9.27667 6.33818 9.38559 6.31639 9.48714 6.27409C9.58869 6.23178 9.68086 6.16978 9.75832 6.09168C9.83643 6.01421 9.89843 5.92204 9.94073 5.82049C9.98304 5.71894 10.0048 5.61002 10.0048 5.50001C10.0048 5.39 9.98304 5.28108 9.94073 5.17953C9.89843 5.07798 9.83643 4.98581 9.75832 4.90834L5.59166 0.741677C5.51419 0.66357 5.42202 0.601575 5.32047 0.559267C5.21892 0.51696 5.11 0.495178 4.99999 0.495178C4.88998 0.495178 4.78106 0.51696 4.67951 0.559267C4.57796 0.601575 4.48579 0.66357 4.40833 0.741677L0.241658 4.90834C0.0847387 5.06526 -0.00341797 5.27809 -0.00341797 5.50001C-0.00341797 5.72193 0.0847387 5.93476 0.241658 6.09168C0.398578 6.2486 0.611407 6.33675 0.833325 6.33675C1.05524 6.33675 1.26807 6.2486 1.42499 6.09168Z" fill="#535260"/>
</svg>
