<svg width="18" height="18" viewBox="0 0 18 18" fill="none" xmlns="http://www.w3.org/2000/svg">
<path d="M6.25842 5.42502L8.16675 3.50835V11.5C8.16675 11.721 8.25455 11.933 8.41083 12.0893C8.56711 12.2456 8.77907 12.3333 9.00008 12.3333C9.2211 12.3333 9.43306 12.2456 9.58934 12.0893C9.74562 11.933 9.83342 11.721 9.83342 11.5V3.50835L11.7417 5.42502C11.8192 5.50312 11.9114 5.56512 12.0129 5.60742C12.1145 5.64973 12.2234 5.67151 12.3334 5.67151C12.4434 5.67151 12.5523 5.64973 12.6539 5.60742C12.7554 5.56512 12.8476 5.50312 12.9251 5.42502C13.0032 5.34755 13.0652 5.25538 13.1075 5.15383C13.1498 5.05228 13.1716 4.94336 13.1716 4.83335C13.1716 4.72334 13.1498 4.61442 13.1075 4.51287C13.0652 4.41132 13.0032 4.31915 12.9251 4.24168L9.59175 0.908349C9.5125 0.832482 9.41904 0.773011 9.31675 0.733349C9.11386 0.65 8.8863 0.65 8.68342 0.733349C8.58112 0.773011 8.48767 0.832482 8.40841 0.908349L5.07508 4.24168C4.99738 4.31938 4.93575 4.41162 4.8937 4.51314C4.85165 4.61466 4.83001 4.72347 4.83001 4.83335C4.83001 4.94323 4.85165 5.05204 4.8937 5.15356C4.93575 5.25507 4.99738 5.34732 5.07508 5.42502C5.15278 5.50271 5.24502 5.56435 5.34654 5.6064C5.44806 5.64845 5.55687 5.67009 5.66675 5.67009C5.77663 5.67009 5.88544 5.64845 5.98696 5.6064C6.08847 5.56435 6.18072 5.50271 6.25842 5.42502ZM16.5001 9.00002C16.2791 9.00002 16.0671 9.08781 15.9108 9.24409C15.7545 9.40037 15.6667 9.61233 15.6667 9.83335V14.8333C15.6667 15.0544 15.579 15.2663 15.4227 15.4226C15.2664 15.5789 15.0544 15.6667 14.8334 15.6667H3.16675C2.94573 15.6667 2.73377 15.5789 2.57749 15.4226C2.42121 15.2663 2.33341 15.0544 2.33341 14.8333V9.83335C2.33341 9.61233 2.24562 9.40037 2.08934 9.24409C1.93306 9.08781 1.7211 9.00002 1.50008 9.00002C1.27907 9.00002 1.06711 9.08781 0.910826 9.24409C0.754545 9.40037 0.666748 9.61233 0.666748 9.83335V14.8333C0.666748 15.4964 0.93014 16.1323 1.39898 16.6011C1.86782 17.07 2.50371 17.3333 3.16675 17.3333H14.8334C15.4965 17.3333 16.1323 17.07 16.6012 16.6011C17.07 16.1323 17.3334 15.4964 17.3334 14.8333V9.83335C17.3334 9.61233 17.2456 9.40037 17.0893 9.24409C16.9331 9.08781 16.7211 9.00002 16.5001 9.00002Z" fill="white"/>
</svg>
