<svg width="20" height="20" viewBox="0 0 20 20" fill="none" xmlns="http://www.w3.org/2000/svg">
<path d="M8.09167 5.59167L9.16667 4.50833V14.1667C9.16667 14.3877 9.25446 14.5996 9.41074 14.7559C9.56702 14.9122 9.77899 15 10 15C10.221 15 10.433 14.9122 10.5893 14.7559C10.7455 14.5996 10.8333 14.3877 10.8333 14.1667V4.50833L11.9083 5.59167C11.9858 5.66977 12.078 5.73177 12.1795 5.77408C12.2811 5.81638 12.39 5.83817 12.5 5.83817C12.61 5.83817 12.7189 5.81638 12.8205 5.77408C12.922 5.73177 13.0142 5.66977 13.0917 5.59167C13.1698 5.5142 13.2318 5.42203 13.2741 5.32048C13.3164 5.21893 13.3382 5.11001 13.3382 5C13.3382 4.88999 13.3164 4.78107 13.2741 4.67952C13.2318 4.57797 13.1698 4.4858 13.0917 4.40833L10.5917 1.90833C10.5142 1.83023 10.422 1.76823 10.3205 1.72592C10.2189 1.68362 10.11 1.66183 10 1.66183C9.88999 1.66183 9.78107 1.68362 9.67952 1.72592C9.57797 1.76823 9.4858 1.83023 9.40833 1.90833L6.90833 4.40833C6.75141 4.56525 6.66326 4.77808 6.66326 5C6.66326 5.22192 6.75141 5.43475 6.90833 5.59167C7.06525 5.74859 7.27808 5.83674 7.5 5.83674C7.72192 5.83674 7.93475 5.74859 8.09167 5.59167ZM15 7.5H13.3333C13.1123 7.5 12.9004 7.5878 12.7441 7.74408C12.5878 7.90036 12.5 8.11232 12.5 8.33333C12.5 8.55435 12.5878 8.76631 12.7441 8.92259C12.9004 9.07887 13.1123 9.16667 13.3333 9.16667H15C15.221 9.16667 15.433 9.25446 15.5893 9.41074C15.7455 9.56703 15.8333 9.77899 15.8333 10V15.8333C15.8333 16.0543 15.7455 16.2663 15.5893 16.4226C15.433 16.5789 15.221 16.6667 15 16.6667H5C4.77899 16.6667 4.56702 16.5789 4.41074 16.4226C4.25446 16.2663 4.16667 16.0543 4.16667 15.8333V10C4.16667 9.77899 4.25446 9.56703 4.41074 9.41074C4.56702 9.25446 4.77899 9.16667 5 9.16667H6.66667C6.88768 9.16667 7.09964 9.07887 7.25592 8.92259C7.4122 8.76631 7.5 8.55435 7.5 8.33333C7.5 8.11232 7.4122 7.90036 7.25592 7.74408C7.09964 7.5878 6.88768 7.5 6.66667 7.5H5C4.33696 7.5 3.70107 7.76339 3.23223 8.23223C2.76339 8.70107 2.5 9.33696 2.5 10V15.8333C2.5 16.4964 2.76339 17.1323 3.23223 17.6011C3.70107 18.0699 4.33696 18.3333 5 18.3333H15C15.663 18.3333 16.2989 18.0699 16.7678 17.6011C17.2366 17.1323 17.5 16.4964 17.5 15.8333V10C17.5 9.33696 17.2366 8.70107 16.7678 8.23223C16.2989 7.76339 15.663 7.5 15 7.5Z" fill="#535260"/>
</svg>
